<svg width="98" height="78" viewBox="0 0 98 78" fill="none" xmlns="http://www.w3.org/2000/svg">
<path fill-rule="evenodd" clip-rule="evenodd" d="M48.2161 0.189879C47.7904 0.291166 47.0759 0.627048 46.6282 0.936602C46.1805 1.24592 42.0176 6.19593 37.3775 11.9363C32.7371 17.6767 28.8143 22.5062 28.6597 22.6685C28.4388 22.9002 26.3021 21.1325 18.6788 14.4111C13.3438 9.70729 8.57554 5.64775 8.08261 5.38967C6.99591 4.82085 5.02824 4.7504 3.87879 5.23904C2.1796 5.96181 0.81921 7.93963 0.822761 9.68286C0.823708 10.1395 2.55912 22.2548 4.6795 36.6057L8.53458 62.6984L49.4084 62.7584L90.2823 62.8184L90.4191 62.0467C90.4942 61.6224 92.2104 49.8537 94.2328 35.8941C96.717 18.7451 97.8807 10.0702 97.8205 9.14795C97.6529 6.57949 95.6093 4.70153 92.982 4.70153C92.2819 4.70153 91.3593 4.84813 90.9314 5.02722C90.5036 5.20631 85.7394 9.17097 80.3442 13.8375C74.9491 18.5041 70.3622 22.4713 70.1508 22.6537C69.8068 22.9507 68.9379 21.9182 61.8878 12.8353C57.5547 7.25292 53.5737 2.22819 53.041 1.66933C52.3795 0.975268 51.7023 0.543316 50.9028 0.305398C49.6274 -0.0738938 49.3729 -0.0850424 48.2161 0.189879ZM8.86035 70.4211C8.86035 71.8638 8.9856 73.542 9.13854 74.1504C9.52043 75.6702 11.1839 77.3368 12.7008 77.7194C13.5221 77.9267 22.9274 77.9981 49.4072 77.9981C89.5299 77.9981 86.6829 78.1286 88.366 76.2127C89.5474 74.8682 89.8305 73.7484 89.8305 70.4211V67.7983H49.3454H8.86035V70.4211Z" fill="#FFCE3B"/>
</svg>
