<svg width="132" height="43" viewBox="0 0 132 43" fill="none" xmlns="http://www.w3.org/2000/svg">
<rect y="0.939453" width="132" height="42" rx="6" fill="#1C1C1C"/>
<path d="M26.537 9.62891C26.6971 10.9859 26.1205 12.3232 25.2777 13.3061C24.3982 14.2737 22.9914 15.0139 21.6211 14.9185C21.4418 13.6128 22.136 12.2243 22.9133 11.3771C23.7917 10.4158 25.3172 9.67927 26.537 9.62891Z" fill="white"/>
<path d="M31.0227 17.4571C30.8698 17.5423 28.3356 18.9529 28.3634 21.8296C28.3962 25.3036 31.6226 26.452 31.6612 26.4636C31.6419 26.5446 31.1559 28.1228 29.9458 29.7218C28.9352 31.1319 27.8764 32.5105 26.1947 32.5339C25.3949 32.5515 24.855 32.3371 24.2922 32.1137C23.7056 31.8809 23.0942 31.6382 22.138 31.6382C21.1242 31.6382 20.4857 31.8889 19.87 32.1306C19.3373 32.3398 18.8216 32.5423 18.0947 32.5698C16.4931 32.6247 15.2694 31.0662 14.2222 29.6687C12.1287 26.8171 10.4991 21.6326 12.6841 18.1047C13.7429 16.3745 15.6734 15.2603 17.737 15.2306C18.6457 15.2133 19.5172 15.5399 20.2813 15.8262C20.8655 16.0451 21.3869 16.2405 21.814 16.2405C22.1891 16.2405 22.6958 16.0529 23.2864 15.8343C24.2172 15.4898 25.3564 15.0681 26.5168 15.182C27.3104 15.2036 29.5687 15.4743 31.0258 17.4554L31.0227 17.4571Z" fill="white"/>
<path fill-rule="evenodd" clip-rule="evenodd" d="M42.6231 10.4034H40.3594V16.6844H42.6231C44.6253 16.6844 45.8015 15.5222 45.8015 13.5417C45.8015 11.5656 44.6207 10.4034 42.6231 10.4034ZM41.1995 11.1086V15.9793H42.567C44.0932 15.9793 44.9427 15.1087 44.9427 13.5504C44.9427 11.9791 44.0979 11.1086 42.567 11.1086H41.1995Z" fill="white"/>
<path fill-rule="evenodd" clip-rule="evenodd" d="M49.0465 16.7627C47.7023 16.7627 46.7968 15.8617 46.7968 14.421C46.7968 12.9759 47.7023 12.0792 49.0465 12.0792C50.386 12.0792 51.2914 12.9759 51.2914 14.421C51.2914 15.8617 50.386 16.7627 49.0465 16.7627ZM50.4653 14.421C50.4653 15.4874 49.9053 16.0968 49.0465 16.0968C48.1877 16.0968 47.623 15.4874 47.623 14.421C47.623 13.3546 48.1877 12.7452 49.0465 12.7452C49.9053 12.7452 50.4653 13.3546 50.4653 14.421Z" fill="white"/>
<path d="M56.422 16.6844H57.2481L58.6017 12.1576H57.7989L56.8281 15.84H56.8094L55.7079 12.1576H54.9238L53.827 15.84H53.8084L52.8376 12.1576H52.0301L53.3883 16.6844H54.2144L55.3066 13.1805H55.3252L56.422 16.6844Z" fill="white"/>
<path d="M60.3485 12.1576H59.583V16.6844H60.3951V14.0205C60.3951 13.2545 60.8945 12.7495 61.66 12.7495C62.4067 12.7495 62.7755 13.15 62.7755 13.8812V16.6844H63.5876V13.7463C63.5876 12.7191 62.9715 12.0792 61.9073 12.0792C61.1559 12.0792 60.6378 12.3926 60.3671 12.8801H60.3485V12.1576Z" fill="white"/>
<path d="M64.9797 10.4034V16.6844H65.7918V10.4034H64.9797Z" fill="white"/>
<path fill-rule="evenodd" clip-rule="evenodd" d="M66.9692 14.421C66.9692 15.8617 67.8746 16.7627 69.2188 16.7627C70.5583 16.7627 71.4638 15.8617 71.4638 14.421C71.4638 12.9759 70.5583 12.0792 69.2188 12.0792C67.8746 12.0792 66.9692 12.9759 66.9692 14.421ZM69.2188 16.0968C70.0776 16.0968 70.6377 15.4874 70.6377 14.421C70.6377 13.3546 70.0776 12.7452 69.2188 12.7452C68.36 12.7452 67.7953 13.3546 67.7953 14.421C67.7953 15.4874 68.36 16.0968 69.2188 16.0968Z" fill="white"/>
<path fill-rule="evenodd" clip-rule="evenodd" d="M74.018 16.7627C73.0519 16.7627 72.4031 16.2187 72.4031 15.4047C72.4031 14.6299 73.0426 14.1424 74.1627 14.0815L75.5536 14.0075V13.6288C75.5536 13.076 75.1615 12.7452 74.4894 12.7452C73.864 12.7452 73.472 13.0194 73.3693 13.4634H72.5852C72.6412 12.6799 73.3599 12.0792 74.5081 12.0792C75.6469 12.0792 76.3657 12.6538 76.3657 13.5548V16.6844H75.5956V15.9053H75.5769C75.2875 16.4232 74.6714 16.7627 74.018 16.7627ZM75.5536 14.9651C75.5536 15.618 74.9655 16.1185 74.2 16.1185C73.6166 16.1185 73.2292 15.8356 73.2292 15.4047C73.2292 14.9781 73.6026 14.7083 74.2561 14.6691L75.5536 14.5951V14.9651Z" fill="white"/>
<path fill-rule="evenodd" clip-rule="evenodd" d="M77.4777 14.421C77.4777 15.84 78.3178 16.7627 79.5547 16.7627C80.2548 16.7627 80.8102 16.4406 81.1229 15.9183H81.1369V16.6844H81.9116V10.4034H81.0995V12.8932H81.0809C80.7915 12.397 80.2314 12.0792 79.536 12.0792C78.3132 12.0792 77.4777 13.002 77.4777 14.421ZM79.7087 12.7452C78.8499 12.7452 78.3085 13.3981 78.3085 14.421C78.3085 15.4482 78.8499 16.0968 79.7087 16.0968C80.5441 16.0968 81.1042 15.4352 81.1042 14.421C81.1042 13.4111 80.5441 12.7452 79.7087 12.7452Z" fill="white"/>
<path fill-rule="evenodd" clip-rule="evenodd" d="M87.6176 16.7627C86.2734 16.7627 85.3679 15.8617 85.3679 14.421C85.3679 12.9759 86.2734 12.0792 87.6176 12.0792C88.9571 12.0792 89.8625 12.9759 89.8625 14.421C89.8625 15.8617 88.9571 16.7627 87.6176 16.7627ZM89.0364 14.421C89.0364 15.4874 88.4763 16.0968 87.6176 16.0968C86.7588 16.0968 86.194 15.4874 86.194 14.421C86.194 13.3546 86.7588 12.7452 87.6176 12.7452C88.4763 12.7452 89.0364 13.3546 89.0364 14.421Z" fill="white"/>
<path d="M91.7634 12.1576H90.9979V16.6844H91.81V14.0205C91.81 13.2545 92.3094 12.7495 93.0749 12.7495C93.8216 12.7495 94.1903 13.15 94.1903 13.8812V16.6844H95.0024V13.7463C95.0024 12.7191 94.3864 12.0792 93.3222 12.0792C92.5708 12.0792 92.0527 12.3926 91.782 12.8801H91.7634V12.1576Z" fill="white"/>
<path d="M99.7049 11.065H98.8928V12.1576H98.1694V12.78H98.8928V15.5092C98.8928 16.3797 99.2382 16.7192 100.13 16.7192C100.321 16.7192 100.545 16.7062 100.643 16.6844V16.0489C100.587 16.0576 100.4 16.0707 100.307 16.0707C99.8916 16.0707 99.7049 15.8835 99.7049 15.47V12.78H100.648V12.1576H99.7049V11.065Z" fill="white"/>
<path d="M101.872 10.4034V16.6844H102.684V14.0466C102.684 13.2632 103.183 12.7495 103.991 12.7495C104.751 12.7495 105.139 13.1805 105.139 13.8987V16.6844H105.951V13.7594C105.951 12.7495 105.307 12.0792 104.243 12.0792C103.505 12.0792 102.973 12.3752 102.703 12.8801H102.684V10.4034H101.872Z" fill="white"/>
<path fill-rule="evenodd" clip-rule="evenodd" d="M111.32 15.3873H110.521C110.386 15.8139 109.933 16.1055 109.317 16.1055C108.445 16.1055 107.898 15.5353 107.898 14.6691V14.6256H111.38V14.3383C111.38 12.9672 110.573 12.0792 109.261 12.0792C107.922 12.0792 107.063 13.0325 107.063 14.4384C107.063 15.8617 107.908 16.7627 109.299 16.7627C110.358 16.7627 111.18 16.1795 111.32 15.3873ZM109.247 12.7365C108.487 12.7365 107.954 13.2806 107.903 14.0336H110.54C110.521 13.2762 110.013 12.7365 109.247 12.7365Z" fill="white"/>
<path fill-rule="evenodd" clip-rule="evenodd" d="M48.224 32.0819L47.0478 28.8411H42.1472L40.971 32.0819H38.8949L43.5372 20.091H45.6934L50.3357 32.0819H48.224ZM42.655 27.3454L44.5708 22.0853H44.6242L46.5399 27.3454H42.655Z" fill="white"/>
<path fill-rule="evenodd" clip-rule="evenodd" d="M60.7853 27.711C60.7853 24.9439 59.2171 23.1988 56.8381 23.1988C55.4837 23.1988 54.4056 23.8387 53.8531 24.8442H53.8175V23.3401H51.9552V34.9737H53.8799V30.6444H53.9244C54.459 31.6166 55.5283 32.2315 56.8737 32.2315C59.226 32.2315 60.7853 30.4782 60.7853 27.711ZM56.3302 30.7108C57.8538 30.7108 58.8072 29.5475 58.8072 27.711C58.8072 25.8829 57.8538 24.7112 56.3302 24.7112C54.86 24.7112 53.871 25.9078 53.871 27.711C53.871 29.5309 54.8511 30.7108 56.3302 30.7108Z" fill="white"/>
<path fill-rule="evenodd" clip-rule="evenodd" d="M67.5817 23.1988C69.9608 23.1988 71.529 24.9439 71.529 27.711C71.529 30.4782 69.9697 32.2315 67.6174 32.2315C66.2719 32.2315 65.2027 31.6166 64.6681 30.6444H64.6235V34.9737H62.6989V23.3401H64.5612V24.8442H64.5968C65.1492 23.8387 66.2274 23.1988 67.5817 23.1988ZM69.5509 27.711C69.5509 29.5475 68.5975 30.7108 67.0739 30.7108C65.5948 30.7108 64.6146 29.5309 64.6146 27.711C64.6146 25.9078 65.6037 24.7112 67.0739 24.7112C68.5975 24.7112 69.5509 25.8829 69.5509 27.711Z" fill="white"/>
<path d="M79.2054 28.7414H77.2362C77.361 30.9103 79.2856 32.2814 82.1369 32.2814C85.1842 32.2814 87.0999 30.877 87.0999 28.6334C87.0999 26.88 86.004 25.8912 83.3665 25.3095L81.9498 24.9854C80.2925 24.6032 79.6153 24.1046 79.6153 23.257C79.6153 22.1934 80.6756 21.4621 82.226 21.4621C83.7764 21.4621 84.8367 22.185 84.9525 23.3816H86.895C86.8326 21.3125 84.9704 19.8916 82.2527 19.8916C79.5084 19.8916 77.5748 21.3125 77.5748 23.3816C77.5748 25.0519 78.6708 26.0823 81.032 26.6141L82.6982 26.9881C84.3645 27.3703 85.0684 27.9271 85.0684 28.8578C85.0684 29.9297 83.9011 30.7108 82.2795 30.7108C80.5865 30.7108 79.348 29.9297 79.2054 28.7414Z" fill="white"/>
<path d="M91.5886 21.271H89.655V23.3401H88.2918V24.7611H89.655V29.7801C89.655 31.467 90.3946 32.1401 92.2925 32.1401C92.7202 32.1401 93.1479 32.1069 93.3617 32.057V30.636C93.237 30.661 92.9251 30.6776 92.7291 30.6776C91.945 30.6776 91.5886 30.3369 91.5886 29.5807V24.7611H93.3706V23.3401H91.5886V21.271Z" fill="white"/>
<path fill-rule="evenodd" clip-rule="evenodd" d="M94.7407 27.711C94.7407 30.528 96.5049 32.2481 99.1869 32.2481C101.869 32.2481 103.633 30.528 103.633 27.711C103.633 24.9023 101.86 23.1822 99.1869 23.1822C96.5138 23.1822 94.7407 24.9023 94.7407 27.711ZM99.1869 30.769C100.702 30.769 101.673 29.6555 101.673 27.711C101.673 25.7749 100.693 24.6613 99.1869 24.6613C97.6811 24.6613 96.701 25.7749 96.701 27.711C96.701 29.6555 97.6811 30.769 99.1869 30.769Z" fill="white"/>
<path d="M105.556 23.3401H107.391V24.8275H107.436C107.748 23.8054 108.585 23.1988 109.69 23.1988C109.966 23.1988 110.207 23.2404 110.349 23.2653V24.9356C110.198 24.8774 109.859 24.8359 109.485 24.8359C108.247 24.8359 107.48 25.6087 107.48 26.8468V32.0819H105.556V23.3401Z" fill="white"/>
<path fill-rule="evenodd" clip-rule="evenodd" d="M118.188 29.5204H120.015C119.748 31.1159 118.126 32.2543 115.979 32.2543C113.225 32.2543 111.559 30.5176 111.559 27.7588C111.559 25.0166 113.252 23.1884 115.898 23.1884C118.5 23.1884 120.122 24.9002 120.122 27.551V28.166H113.501V28.274C113.501 29.7947 114.482 30.8001 116.023 30.8001C117.119 30.8001 117.93 30.2849 118.188 29.5204ZM113.501 27.0144L118.188 26.9731C118.188 26.6048 118.023 25.922 117.635 25.5599C117.246 25.1979 116.675 24.923 115.898 24.923C114.335 24.923 113.501 25.8972 113.501 27.0144Z" fill="white"/>
</svg>
