<svg width="132" height="43" viewBox="0 0 132 43" fill="none" xmlns="http://www.w3.org/2000/svg">
<rect y="0.939453" width="132" height="42" rx="6" fill="#1C1C1C"/>
<path d="M40.576 12.1299H37.8735V12.8778H39.7903C39.6955 13.9266 38.7599 14.3739 37.8768 14.3739C36.7469 14.3739 35.7609 13.5448 35.7609 12.3827C35.7609 11.2507 36.7008 10.379 37.8791 10.379C38.7885 10.379 39.3243 10.9194 39.3243 10.9194L39.8857 10.3771C39.8857 10.3771 39.165 9.62891 37.8505 9.62891C36.1767 9.62891 34.882 10.9464 34.882 12.3693C34.882 13.7639 36.1 15.1234 37.8931 15.1234C39.4704 15.1234 40.625 14.1159 40.625 12.6259C40.625 12.3115 40.576 12.1299 40.576 12.1299Z" fill="white"/>
<path d="M41.0851 24.1837H47.0235C47.0277 24.1995 47.1309 24.5965 47.1309 25.2733C47.1309 28.5474 44.5939 30.7617 41.1283 30.7617C37.1877 30.7617 34.5113 27.774 34.5113 24.7099C34.5113 21.5829 37.3566 18.6879 41.0345 18.688C43.9229 18.688 45.5066 20.3322 45.5066 20.3322L44.2727 21.5238C44.2727 21.5238 43.0955 20.3359 41.0976 20.3359C38.5082 20.3359 36.4429 22.2517 36.4429 24.7392C36.4429 27.2925 38.6094 29.1145 41.0922 29.1145C43.0327 29.1145 45.0886 28.1316 45.2968 25.8271H41.0851V24.1837Z" fill="white"/>
<path fill-rule="evenodd" clip-rule="evenodd" d="M47.8885 26.8423C47.8885 24.7701 49.6347 22.9936 52.0716 22.9936C54.0745 22.9936 56.2466 24.3173 56.2466 26.8874C56.2466 29.1298 54.3793 30.7546 52.0999 30.7546C49.5821 30.7546 47.8885 28.945 47.8885 26.8423ZM54.4295 26.8772C54.4295 25.4213 53.294 24.5177 52.0956 24.5177C50.7492 24.5177 49.7145 25.5217 49.7145 26.8659C49.7145 28.2395 50.7622 29.2314 52.0901 29.2314C53.2987 29.2314 54.4295 28.3021 54.4295 26.8772Z" fill="white"/>
<path fill-rule="evenodd" clip-rule="evenodd" d="M61.2677 22.9936C58.831 22.9936 57.0846 24.7701 57.0846 26.8423C57.0846 28.945 58.7784 30.7546 61.2964 30.7546C63.5756 30.7546 65.4429 29.1298 65.4429 26.8874C65.4429 24.3173 63.2709 22.9936 61.2677 22.9936ZM61.2919 24.5177C62.4902 24.5177 63.6258 25.4213 63.6258 26.8772C63.6258 28.3021 62.495 29.2314 61.2863 29.2314C59.9585 29.2314 58.9109 28.2395 58.9109 26.8659C58.9109 25.5217 59.9454 24.5177 61.2919 24.5177Z" fill="white"/>
<path fill-rule="evenodd" clip-rule="evenodd" d="M66.2806 26.875C66.2806 24.8245 68.0389 22.9977 70.2753 22.9977C71.2491 22.9977 71.9826 23.3491 72.5189 23.8883V23.231H74.2635V30.2039C74.2635 32.9436 72.5686 34.2496 70.3447 34.2496C68.3118 34.2496 67.1698 33.0838 66.6023 31.9645L68.2015 31.341C68.423 31.8411 69.0606 32.7229 70.3315 32.7229C71.6472 32.7229 72.5188 31.9207 72.5188 30.5819V29.8167C72.0533 30.3206 71.4228 30.7597 70.2367 30.7597C68.3188 30.7597 66.2806 29.2108 66.2806 26.875ZM70.4372 24.5188C71.5338 24.5188 72.6599 25.3921 72.6599 26.8833C72.6599 28.399 71.5362 29.2343 70.413 29.2343C69.2208 29.2343 68.1112 28.3315 68.1112 26.8977C68.1112 25.4079 69.2635 24.5188 70.4372 24.5188Z" fill="white"/>
<path fill-rule="evenodd" clip-rule="evenodd" d="M78.506 26.8638C78.506 24.5538 80.2773 22.9883 82.387 22.9883C84.051 22.9883 85.3084 24.0234 85.8473 25.2624L86.1371 25.8952L80.5576 28.0542C80.8909 28.6328 81.4289 29.2302 82.5985 29.2303C83.6398 29.2303 84.2639 28.7023 84.6372 28.162L86.0755 29.0546C85.4306 29.8594 84.3502 30.7575 82.5897 30.7575C80.4804 30.7575 78.506 29.308 78.506 26.8638ZM82.4599 24.4809C83.2201 24.4809 83.7672 24.8577 83.9995 25.3097L80.2735 26.7621C80.113 25.6376 81.2554 24.4809 82.4599 24.4809Z" fill="white"/>
<path d="M77.4952 30.5272H75.6626V19.0893H77.4952V30.5272Z" fill="white"/>
<path d="M100.234 30.5272H102.066V19.0893H100.234V30.5272Z" fill="white"/>
<path fill-rule="evenodd" clip-rule="evenodd" d="M92.348 30.5272H90.5153V19.0893L94.9484 19.0892C97.0974 19.0892 98.8555 20.7288 98.8555 22.733C98.8555 24.737 97.0974 26.3766 94.9484 26.3766H92.348V30.5272ZM92.348 24.6675V20.7984H94.9484C96.0859 20.7984 97.023 21.6722 97.023 22.733C97.023 23.7936 96.0859 24.6675 94.9484 24.6675H92.348Z" fill="white"/>
<path d="M115.597 34.2496L120.904 22.9886H118.902L116.501 28.0845L114.099 22.9886H112.098L115.5 30.2085L113.596 34.2496H115.597Z" fill="white"/>
<path fill-rule="evenodd" clip-rule="evenodd" d="M109.567 30.5272H111.4V26.4134C111.686 22.1707 105.919 21.1728 103.736 24.2314L105.211 25.1543C106.278 23.4144 109.323 23.8147 109.523 25.6793C108.608 25.4533 107.62 25.2894 106.716 25.3746C105.306 25.5077 104.099 26.3427 103.907 27.7104C103.804 28.4495 103.981 29.3606 104.534 29.9158C105.396 30.7808 106.812 30.8974 107.975 30.6018C108.629 30.4354 109.145 30.0726 109.567 29.6039V30.5272ZM107.539 29.1109C108.542 28.8562 109.333 28.172 109.567 27.2208C109.054 27.066 108.582 26.941 108.042 26.8801C104.893 26.4386 105.42 29.6497 107.539 29.1109Z" fill="white"/>
<path d="M52.4557 15.0168H51.6218V9.81158H52.4557V15.0168Z" fill="white"/>
<path d="M46.9511 15.0168H47.7852V10.5893H49.1542V9.81158H45.5821V10.5893H46.9511V15.0168Z" fill="white"/>
<path d="M44.7027 15.0168H41.5042V9.81158H44.7027V10.5893H42.3383V12.0253H44.4181V12.8031H42.3383V14.2389H44.7027V15.0168Z" fill="white"/>
<path d="M55.3377 15.0168V10.5893H56.7067V9.81158H53.1347V10.5893H54.5038V15.0168H55.3377Z" fill="white"/>
<path fill-rule="evenodd" clip-rule="evenodd" d="M58.8527 12.3693C58.8527 10.9463 60.1475 9.62891 61.8213 9.62891C63.4951 9.62891 64.79 10.9463 64.79 12.3693C64.79 13.7526 63.5912 15.1016 61.8213 15.1229C60.0514 15.1016 58.8527 13.7526 58.8527 12.3693ZM61.8213 14.3736C60.7025 14.3608 59.7317 13.5358 59.7317 12.3827C59.7317 11.26 60.6564 10.3932 61.8213 10.3792C62.9864 10.3932 63.9109 11.26 63.9109 12.3827C63.9109 13.5358 62.9402 14.3608 61.8213 14.3736Z" fill="white"/>
<path d="M66.4571 15.0168H65.623V9.81158H66.4571L69.1343 13.6012V9.81158H69.9684V15.0168H69.1358L66.4571 11.2253V15.0168Z" fill="white"/>
<path d="M12.1091 16.1215L21.5324 24.8965L12.1544 33.7484C11.8807 33.5862 11.734 33.235 11.7315 32.7814L11.6465 17.0706C11.6439 16.5738 11.8377 16.2708 12.1091 16.1215Z" fill="white"/>
<path d="M13.1811 16.1333L24.6398 21.9635L21.9222 24.5285L12.7812 16.0161C12.9197 16.0331 13.0587 16.071 13.1811 16.1333Z" fill="white"/>
<path d="M25.1493 27.5336L22.3147 24.8939L25.1465 22.2213L29.0461 24.2052C30.0068 24.6937 29.5154 25.3049 29.0461 25.5444L25.1493 27.5336Z" fill="white"/>
<path d="M13.1811 33.6423C13.0945 33.6874 13.0111 33.7228 12.9312 33.7508L21.9249 25.2619L24.6421 27.7922L13.1811 33.6423Z" fill="white"/>
</svg>
