<svg width="27" height="26" viewBox="0 0 27 26" fill="none" xmlns="http://www.w3.org/2000/svg">
<path d="M3.85596 12.1602H21.6177V25.8948C21.6177 25.9228 21.6066 25.9496 21.587 25.9694C21.5673 25.9891 21.5406 26.0003 21.5128 26.0003H3.96085C3.93303 26.0003 3.90635 25.9891 3.88668 25.9694C3.86701 25.9496 3.85596 25.9228 3.85596 25.8948V12.1602Z" fill="#A2BDFF"/>
<path d="M17.1618 6.77734H8.90301L3.85596 12.1596H21.6177L17.1618 6.77734Z" fill="#418DF9"/>
<path d="M5.53812 4.625L8.90282 6.77792L3.85577 12.1602L0.0322266 9.23837L5.53812 4.625Z" fill="#699CFF"/>
<path d="M20.5263 4.625L17.1616 6.77792L21.6175 12.1602L26.0322 9.23837L20.5263 4.625Z" fill="#699CFF"/>
<path d="M11.0726 4.73544C11.1675 4.69018 11.2414 4.60976 11.2787 4.51101C11.3161 4.41226 11.3141 4.30281 11.273 4.20553L9.7594 0.616819C9.73796 0.565986 9.70652 0.520038 9.66697 0.481736C9.62742 0.443435 9.58057 0.413571 9.52924 0.393941C9.47792 0.374311 9.42317 0.365321 9.3683 0.367509C9.31343 0.369698 9.25957 0.383021 9.20995 0.406678L8.91834 0.54571C8.86872 0.569366 8.82437 0.602865 8.78796 0.644195C8.75155 0.685524 8.72383 0.733831 8.70646 0.786209C8.68909 0.838587 8.68243 0.893956 8.68689 0.948987C8.69135 1.00402 8.70683 1.05757 8.7324 1.10644L10.5376 4.5561C10.5866 4.64961 10.6695 4.72048 10.7692 4.7539C10.8689 4.78732 10.9776 4.78071 11.0726 4.73544Z" fill="#418DF9"/>
<path d="M12.9703 4.38609C13.039 4.38117 13.1032 4.34974 13.1494 4.29837C13.1956 4.24699 13.2203 4.17965 13.2183 4.11041L13.1435 1.55556C13.1425 1.51937 13.1341 1.48378 13.1191 1.4509C13.104 1.41803 13.0824 1.38857 13.0557 1.36429C13.029 1.34 12.9977 1.3214 12.9636 1.3096C12.9296 1.29779 12.8935 1.29303 12.8576 1.2956L12.6465 1.31072C12.6106 1.31329 12.5756 1.32313 12.5436 1.33966C12.5115 1.35618 12.4832 1.37904 12.4602 1.40687C12.4371 1.43469 12.42 1.46691 12.4096 1.50159C12.3993 1.53626 12.3961 1.57267 12.4001 1.60864L12.686 4.14838C12.6937 4.21723 12.7276 4.28042 12.7806 4.32472C12.8336 4.36902 12.9016 4.39101 12.9703 4.38609Z" fill="#418DF9"/>
<path d="M14.4354 5.33134C14.6244 5.44122 14.8898 5.34039 15.037 5.10272L17.6502 0.882764C17.8063 0.630667 17.7694 0.323409 17.5689 0.206863L17.2894 0.0444384C17.089 -0.0721281 16.8057 0.0489101 16.6662 0.31071L14.3324 4.69307C14.2009 4.93989 14.2464 5.22144 14.4354 5.33134Z" fill="#418DF9"/>
</svg>
