<svg width="137" height="136" viewBox="0 0 137 136" fill="none" xmlns="http://www.w3.org/2000/svg">
<path d="M67.8359 131.332C102.813 131.332 131.168 102.977 131.168 68C131.168 33.0227 102.813 4.66797 67.8359 4.66797C32.8586 4.66797 4.50391 33.0227 4.50391 68C4.50391 102.977 32.8586 131.332 67.8359 131.332Z" fill="#F8F8F8"/>
<path d="M17.8339 123.778C18.5238 122.255 17.8276 120.452 16.3045 119.762C14.7814 119.072 12.987 119.748 12.2971 121.271C11.6073 122.794 12.2737 124.609 13.7968 125.299C15.3199 125.988 17.1441 125.301 17.8339 123.778ZM22.3097 129.737C22.7488 128.767 22.3056 127.619 21.3362 127.18C20.3668 126.741 19.2248 127.171 18.7857 128.141C18.3466 129.11 18.7708 130.265 19.7402 130.704C20.7096 131.143 21.8706 130.706 22.3097 129.737ZM123.838 12.7454C124.927 11.4768 124.764 9.55036 123.496 8.46111C122.227 7.37185 120.315 7.51714 119.226 8.7858C118.137 10.0544 118.268 11.9833 119.536 13.0725C120.805 14.1618 122.748 14.014 123.838 12.7454ZM126.463 19.7199C127.156 18.9125 127.053 17.6864 126.245 16.9931C125.438 16.2998 124.221 16.3923 123.528 17.1997C122.835 18.0071 122.918 19.2349 123.725 19.9281C124.533 20.6214 125.77 20.5273 126.463 19.7199ZM15.6764 18.7499C16.7658 17.4813 16.6032 15.5549 15.3347 14.4656C14.0661 13.3764 12.1543 13.5216 11.065 14.7903C9.97574 16.0589 10.1065 17.9878 11.375 19.0771C12.6436 20.1663 14.5872 20.0185 15.6764 18.7499Z" fill="#E6E6E6"/>
<path d="M116.061 62.248H14.2578L29.6006 27.3662C31.3765 22.8828 35.6333 19.9883 40.4604 19.9883H89.8589C94.686 19.9883 98.9429 22.8828 100.719 27.3662L116.061 62.248ZM21.9189 57.248H108.4L96.082 29.2383C95.0732 26.6562 92.6304 24.9883 89.8589 24.9883H40.4604C37.689 24.9883 35.2461 26.6562 34.2373 29.2383L34.1973 29.335L21.9189 57.248Z" fill="#CCCCCC"/>
<path d="M83.9043 22.4892C83.9043 25.2006 82.0143 27.4667 79.481 28.0407C79.0654 28.1494 78.63 28.199 78.1847 28.199H55.8603C55.415 28.199 54.9796 28.1494 54.5639 28.0407C52.0208 27.4667 50.1406 25.2006 50.1406 22.4892C50.1406 19.2526 52.7689 16.7695 55.8603 16.7695H78.1847C78.63 16.7695 79.0654 16.8191 79.481 16.928C82.0143 17.5018 83.9043 19.7778 83.9043 22.4892Z" fill="url(#paint0_linear_1808_72316)"/>
<path d="M56.7434 16.7715V28.2009H55.8628C55.4175 28.2009 54.9821 28.1514 54.5664 28.0427V16.93C55.431 16.7033 56.1204 16.789 56.7434 16.7715Z" fill="url(#paint1_linear_1808_72316)"/>
<path d="M62.4331 16.7695H60.2461V28.1985H62.4331V16.7695Z" fill="url(#paint2_linear_1808_72316)"/>
<path d="M68.1128 16.7695H65.9258V28.1985H68.1128V16.7695Z" fill="url(#paint3_linear_1808_72316)"/>
<path d="M73.7903 16.7695H71.6133V28.1985H73.7903V16.7695Z" fill="url(#paint4_linear_1808_72316)"/>
<path d="M79.4838 16.928V28.0407C79.0682 28.1494 78.6328 28.199 78.1875 28.199H77.2969V16.7695H78.1875C78.6328 16.7695 79.0682 16.8191 79.4838 16.928Z" fill="url(#paint5_linear_1808_72316)"/>
<path d="M124.299 54.1558V65.1991C124.299 66.7429 123.043 67.9997 121.489 67.9997H8.82781C7.2742 67.9997 6.02734 66.7429 6.02734 65.1991V54.1558C6.02734 52.612 7.2742 51.3555 8.82781 51.3555H121.489C123.043 51.3555 124.299 52.612 124.299 54.1558Z" fill="url(#paint6_linear_1808_72316)"/>
<path d="M117.353 68L110.585 104.327C109.605 109.601 104.994 113.431 99.6303 113.431H30.6879C25.3244 113.431 20.723 109.601 19.7334 104.327L12.9648 68H117.353Z" fill="url(#paint7_linear_1808_72316)"/>
<path d="M46.4225 79.6937V97.1776C46.4225 99.7915 44.3036 101.91 41.6898 101.91C39.076 101.91 36.957 99.7915 36.957 97.1776V79.6937C36.957 77.0799 39.076 74.9609 41.6898 74.9609C44.3036 74.9609 46.4225 77.0799 46.4225 79.6937Z" fill="url(#paint8_linear_1808_72316)"/>
<path d="M69.4225 79.6937V97.1776C69.4225 99.7915 67.3036 101.91 64.6898 101.91C62.076 101.91 59.957 99.7915 59.957 97.1776V79.6937C59.957 77.0799 62.076 74.9609 64.6898 74.9609C67.3036 74.9609 69.4225 77.0799 69.4225 79.6937Z" fill="url(#paint9_linear_1808_72316)"/>
<path d="M92.4225 79.6937V97.1776C92.4225 99.7915 90.3036 101.91 87.6898 101.91C85.076 101.91 82.957 99.7915 82.957 97.1776V79.6937C82.957 77.0799 85.076 74.9609 87.6898 74.9609C90.3036 74.9609 92.4225 77.0799 92.4225 79.6937Z" fill="url(#paint10_linear_1808_72316)"/>
<path d="M115.474 119.347C124.879 119.347 132.503 111.723 132.503 102.318C132.503 92.9132 124.879 85.2891 115.474 85.2891C106.069 85.2891 98.4453 92.9132 98.4453 102.318C98.4453 111.723 106.069 119.347 115.474 119.347Z" fill="#5B87B9" stroke="#2D496A" stroke-width="2" stroke-linecap="round" stroke-linejoin="round"/>
<path d="M123 103C123 103.552 122.552 104 122 104H110C109.448 104 109 103.552 109 103C109 102.448 109.448 102 110 102H122C122.552 102 123 102.448 123 103Z" fill="white"/>
<path d="M116 110C115.448 110 115 109.552 115 109L115 97C115 96.4477 115.448 96 116 96C116.552 96 117 96.4477 117 97L117 109C117 109.552 116.552 110 116 110Z" fill="white"/>
<defs>
<linearGradient id="paint0_linear_1808_72316" x1="50.1411" y1="22.4841" x2="83.9041" y2="22.4841" gradientUnits="userSpaceOnUse">
<stop stop-color="#BDBDBD"/>
<stop offset="1" stop-color="#CACACA"/>
</linearGradient>
<linearGradient id="paint1_linear_1808_72316" x1="54.5666" y1="22.485" x2="56.7436" y2="22.485" gradientUnits="userSpaceOnUse">
<stop stop-color="#D6DCE8"/>
<stop offset="1" stop-color="white"/>
</linearGradient>
<linearGradient id="paint2_linear_1808_72316" x1="60.2461" y1="22.4845" x2="62.4331" y2="22.4845" gradientUnits="userSpaceOnUse">
<stop stop-color="#D6DCE8"/>
<stop offset="1" stop-color="white"/>
</linearGradient>
<linearGradient id="paint3_linear_1808_72316" x1="65.9258" y1="22.4845" x2="68.1128" y2="22.4845" gradientUnits="userSpaceOnUse">
<stop stop-color="#D6DCE8"/>
<stop offset="1" stop-color="white"/>
</linearGradient>
<linearGradient id="paint4_linear_1808_72316" x1="71.6133" y1="22.4845" x2="73.7903" y2="22.4845" gradientUnits="userSpaceOnUse">
<stop stop-color="#D6DCE8"/>
<stop offset="1" stop-color="white"/>
</linearGradient>
<linearGradient id="paint5_linear_1808_72316" x1="77.2968" y1="22.4841" x2="79.4838" y2="22.4841" gradientUnits="userSpaceOnUse">
<stop stop-color="#D6DCE8"/>
<stop offset="1" stop-color="white"/>
</linearGradient>
<linearGradient id="paint6_linear_1808_72316" x1="64.9143" y1="52.4427" x2="65.1983" y2="60.6837" gradientUnits="userSpaceOnUse">
<stop stop-color="#EAEAEA"/>
<stop offset="1" stop-color="#CACACA"/>
</linearGradient>
<linearGradient id="paint7_linear_1808_72316" x1="64.915" y1="57.218" x2="66.046" y2="107.13" gradientUnits="userSpaceOnUse">
<stop stop-color="#E2E2E2"/>
<stop offset="1" stop-color="#E7E7E7"/>
</linearGradient>
<linearGradient id="paint8_linear_1808_72316" x1="36.9566" y1="88.4354" x2="46.4226" y2="88.4354" gradientUnits="userSpaceOnUse">
<stop stop-color="white"/>
<stop offset="1" stop-color="#F2F2F2"/>
</linearGradient>
<linearGradient id="paint9_linear_1808_72316" x1="59.9566" y1="88.4354" x2="69.4226" y2="88.4354" gradientUnits="userSpaceOnUse">
<stop stop-color="white"/>
<stop offset="1" stop-color="#F2F2F2"/>
</linearGradient>
<linearGradient id="paint10_linear_1808_72316" x1="82.9566" y1="88.4354" x2="92.4226" y2="88.4354" gradientUnits="userSpaceOnUse">
<stop stop-color="white"/>
<stop offset="1" stop-color="#F2F2F2"/>
</linearGradient>
</defs>
</svg>
