<svg width="22" height="22" viewBox="0 0 22 22" fill="none" xmlns="http://www.w3.org/2000/svg">
<path d="M11.0321 0.166016C5.07373 0.166016 0.19873 5.04102 0.19873 10.9993C0.19873 16.9577 5.07373 21.8327 11.0321 21.8327C16.9904 21.8327 21.8654 16.9577 21.8654 10.9993C21.8654 5.04102 16.9904 0.166016 11.0321 0.166016ZM14.8779 15.116L10.4579 12.3968C10.1329 12.2018 9.9379 11.8552 9.9379 11.476V6.39518C9.94873 5.95102 10.3171 5.58268 10.7612 5.58268C11.2054 5.58268 11.5737 5.95102 11.5737 6.39518V11.216L15.7337 13.7185C16.1237 13.9569 16.2537 14.466 16.0154 14.856C15.7771 15.2352 15.2679 15.3544 14.8779 15.116Z" fill="#35C21E" fill-opacity="0.9"/>
</svg>
