<svg width="25" height="24" viewBox="0 0 25 24" fill="none" xmlns="http://www.w3.org/2000/svg">
<g clip-path="url(#clip0_127_3597)">
<path d="M6.75781 9.03149L12.4995 12.3573L18.1978 9.05316" stroke="#B9B9B9" stroke-width="1.5" stroke-linecap="round" stroke-linejoin="round"/>
<path d="M12.5 18.2506V12.3464" stroke="#B9B9B9" stroke-width="1.5" stroke-linecap="round" stroke-linejoin="round"/>
<path d="M11.1565 5.81409L7.68977 7.74242C6.90977 8.17576 6.25977 9.26992 6.25977 10.1691V13.8416C6.25977 14.7408 6.89894 15.8349 7.68977 16.2683L11.1565 18.1966C11.8931 18.6083 13.1064 18.6083 13.8539 18.1966L17.3206 16.2683C18.1006 15.8349 18.7506 14.7408 18.7506 13.8416V10.1583C18.7506 9.2591 18.1115 8.16492 17.3206 7.73159L13.8539 5.80326C13.1064 5.39159 11.8931 5.39159 11.1565 5.81409Z" stroke="#B9B9B9" stroke-width="1.5" stroke-linecap="round" stroke-linejoin="round"/>
<path d="M23.3333 15.25C23.3333 19.4425 19.9425 22.8333 15.75 22.8333L16.8875 20.9375" stroke="#B9B9B9" stroke-width="1.5" stroke-linecap="round" stroke-linejoin="round"/>
<path d="M1.66602 8.75008C1.66602 4.55758 5.05685 1.16675 9.24935 1.16675L8.11186 3.06258" stroke="#B9B9B9" stroke-width="1.5" stroke-linecap="round" stroke-linejoin="round"/>
</g>
<defs>
<clipPath id="clip0_127_3597">
<rect width="24" height="24" fill="white" transform="translate(0.5)"/>
</clipPath>
</defs>
</svg>
