<svg width="21" height="16" viewBox="0 0 21 16" fill="none" xmlns="http://www.w3.org/2000/svg">
<path d="M19.9705 7.18494L18.9405 5.75494C18.71 5.43115 18.4056 5.167 18.0526 4.98439C17.6995 4.80178 17.308 4.70598 16.9105 4.70494H12.5305V2.56494C12.5305 1.9019 12.2672 1.26602 11.7983 0.797174C11.3295 0.328333 10.6936 0.0649414 10.0305 0.0649414H3.06055C2.39807 0.0667886 1.76326 0.330774 1.29482 0.799215C0.826379 1.26766 0.562394 1.90247 0.560547 2.56494V12.5049C0.560547 12.9028 0.718582 13.2843 0.999887 13.5656C1.28119 13.8469 1.66272 14.0049 2.06055 14.0049H3.28055C3.35606 14.54 3.62225 15.0297 4.03015 15.3841C4.43805 15.7385 4.96021 15.9336 5.50055 15.9336C6.04088 15.9336 6.56304 15.7385 6.97094 15.3841C7.37884 15.0297 7.64504 14.54 7.72055 14.0049H13.2805C13.3561 14.54 13.6223 15.0297 14.0302 15.3841C14.4381 15.7385 14.9602 15.9336 15.5005 15.9336C16.0409 15.9336 16.563 15.7385 16.9709 15.3841C17.3788 15.0297 17.645 14.54 17.7205 14.0049H18.9405C19.3384 14.0049 19.7199 13.8469 20.0012 13.5656C20.2825 13.2843 20.4405 12.9028 20.4405 12.5049V8.63494C20.4381 8.11455 20.2739 7.60781 19.9705 7.18494ZM5.50055 14.9349C5.25332 14.9349 5.01165 14.8616 4.80608 14.7243C4.60052 14.5869 4.44031 14.3917 4.3457 14.1633C4.25109 13.9349 4.22633 13.6836 4.27457 13.4411C4.3228 13.1986 4.44185 12.9759 4.61666 12.8011C4.79148 12.6262 5.01421 12.5072 5.25668 12.459C5.49916 12.4107 5.75049 12.4355 5.9789 12.5301C6.20731 12.6247 6.40253 12.7849 6.53988 12.9905C6.67724 13.196 6.75055 13.4377 6.75055 13.6849C6.75055 14.0165 6.61885 14.3344 6.38443 14.5688C6.15001 14.8032 5.83207 14.9349 5.50055 14.9349ZM11.5305 13.0049H7.65055C7.50494 12.5491 7.21821 12.1513 6.83175 11.869C6.44529 11.5867 5.97911 11.4346 5.50055 11.4346C5.02198 11.4346 4.55581 11.5867 4.16935 11.869C3.78289 12.1513 3.49615 12.5491 3.35055 13.0049H2.06055C1.92794 13.0049 1.80076 12.9523 1.70699 12.8585C1.61323 12.7647 1.56055 12.6375 1.56055 12.5049V2.56494C1.56055 2.16712 1.71858 1.78559 1.99989 1.50428C2.28119 1.22298 2.66272 1.06494 3.06055 1.06494H10.0305C10.4284 1.06494 10.8099 1.22298 11.0912 1.50428C11.3725 1.78559 11.5305 2.16712 11.5305 2.56494V13.0049ZM15.5005 14.9349C15.2533 14.9349 15.0116 14.8616 14.8061 14.7243C14.6005 14.5869 14.4403 14.3917 14.3457 14.1633C14.2511 13.9349 14.2263 13.6836 14.2746 13.4411C14.3228 13.1986 14.4418 12.9759 14.6167 12.8011C14.7915 12.6262 15.0142 12.5072 15.2567 12.459C15.4992 12.4107 15.7505 12.4355 15.9789 12.5301C16.2073 12.6247 16.4025 12.7849 16.5399 12.9905C16.6772 13.196 16.7505 13.4377 16.7505 13.6849C16.7505 14.0165 16.6189 14.3344 16.3844 14.5688C16.15 14.8032 15.8321 14.9349 15.5005 14.9349ZM19.4405 12.5049C19.4405 12.6375 19.3879 12.7647 19.2941 12.8585C19.2003 12.9523 19.0732 13.0049 18.9405 13.0049H17.6505C17.5049 12.5491 17.2182 12.1513 16.8317 11.869C16.4453 11.5867 15.9791 11.4346 15.5005 11.4346C15.022 11.4346 14.5558 11.5867 14.1693 11.869C13.7829 12.1513 13.4962 12.5491 13.3505 13.0049H12.5305V5.70494H16.9105C17.1491 5.70654 17.384 5.76443 17.596 5.8739C17.808 5.98337 17.9911 6.14134 18.1305 6.33494L19.1605 7.76494C19.3405 8.01955 19.4382 8.32316 19.4405 8.63494V12.5049Z" fill="#797979"/>
<path d="M16.5293 8.20483H14.5293C14.3967 8.20483 14.2695 8.15216 14.1757 8.05839C14.082 7.96462 14.0293 7.83744 14.0293 7.70483C14.0293 7.57223 14.082 7.44505 14.1757 7.35128C14.2695 7.25751 14.3967 7.20483 14.5293 7.20483H16.5293C16.6619 7.20483 16.7891 7.25751 16.8828 7.35128C16.9766 7.44505 17.0293 7.57223 17.0293 7.70483C17.0293 7.83744 16.9766 7.96462 16.8828 8.05839C16.7891 8.15216 16.6619 8.20483 16.5293 8.20483Z" fill="#797979"/>
</svg>
