<svg width="247" height="289" viewBox="0 0 247 289" fill="none" xmlns="http://www.w3.org/2000/svg">
<g opacity="0.71">
<path opacity="0.4" d="M109.195 6.03741C180.504 27.9479 194.723 100.61 178.253 161.842C169.79 193.306 124.701 211.558 98.3419 192.406C87.1275 184.258 80.3158 173.258 86.0757 157.964C105.232 107.102 -9.04357 -30.2929 109.195 6.03741Z" fill="#E3E3E3"/>
<path d="M50.5088 67.376V105.927C50.5088 134.615 50.5088 148.958 59.7613 157.877C69.0067 166.789 83.8831 166.789 113.636 166.789H129.407C159.16 166.789 174.036 166.789 183.282 157.877C192.527 148.958 192.527 134.615 192.527 105.927V67.376M50.5088 67.376H192.527M50.5088 67.376L57.3399 50.9871C62.6301 38.2765 65.2787 31.9282 70.647 28.3494C76.0153 24.7705 82.889 24.7705 96.6648 24.7705H146.371C160.14 24.7705 167.021 24.7705 172.389 28.3494C177.757 31.9282 180.406 38.2836 185.696 50.9871L192.527 67.376M121.518 67.376V24.7705M107.316 95.7797H135.72" stroke="#2D496A" stroke-opacity="0.8" stroke-width="3.9633" stroke-linecap="round" stroke-linejoin="round"/>
<path d="M167.022 129.921V125.763M155.853 134.078L153.081 131.306M151.695 145.247H147.538M155.853 156.251L153.081 159.022M180.797 131.306L178.026 134.078M165.091 143.521C169.539 138.734 202.998 150.466 202.97 154.754C202.939 159.61 189.905 161.106 186.29 162.121C184.118 162.731 183.535 163.354 183.034 165.632C180.767 175.951 179.625 181.081 177.031 181.198C172.893 181.381 160.75 148.199 165.091 143.524" stroke="white" stroke-width="7.19115" stroke-linecap="round" stroke-linejoin="round"/>
<path d="M167.842 130.238V125.945V130.238ZM156.307 134.532L153.444 131.67L156.307 134.532ZM152.013 146.067H147.72H152.013ZM156.307 157.431L153.444 160.293L156.307 157.431ZM182.068 131.67L179.206 134.532L182.068 131.67ZM165.847 144.284C170.441 139.341 204.996 151.457 204.967 155.885C204.936 160.9 191.474 162.446 187.742 163.494C185.497 164.123 184.896 164.767 184.378 167.12C182.037 177.777 180.858 183.075 178.178 183.195C173.905 183.384 161.365 149.116 165.847 144.287" fill="#5B87B9"/>
<path d="M167.842 130.238V125.945M156.307 134.532L153.444 131.67M152.013 146.067H147.72M156.307 157.431L153.444 160.293M182.068 131.67L179.206 134.532M165.847 144.284C170.441 139.341 204.996 151.457 204.967 155.885C204.936 160.9 191.474 162.446 187.742 163.494C185.497 164.123 184.896 164.767 184.378 167.12C182.037 177.777 180.858 183.075 178.178 183.195C173.905 183.384 161.365 149.116 165.847 144.287" stroke="#2D496A" stroke-width="3.9633" stroke-linecap="round" stroke-linejoin="round"/>
</g>
<path d="M59.4014 253.003L59.7773 253.078L59.6377 255.936L59.2617 256C58.5241 256 57.8867 255.907 57.3496 255.721C56.8125 255.535 56.3757 255.284 56.0391 254.969C55.7096 254.654 55.4447 254.242 55.2441 253.733C55.0436 253.218 54.904 252.681 54.8252 252.122C54.7536 251.563 54.7142 250.905 54.707 250.146C52.0859 250.89 50.0664 251.821 48.6484 252.938C47.2376 254.049 46.5322 255.295 46.5322 256.677C46.5322 257.049 46.5859 257.404 46.6934 257.74C46.8079 258.084 47.0013 258.421 47.2734 258.75C47.5456 259.079 47.8893 259.362 48.3047 259.599C48.7201 259.842 49.2536 260.035 49.9053 260.179C50.557 260.329 51.2946 260.404 52.1182 260.404C53.307 260.404 54.4062 260.286 55.416 260.05C56.4329 259.821 57.21 259.591 57.7471 259.362L58.1016 261.962C57.8652 262.084 57.5931 262.205 57.2852 262.327C56.9772 262.456 56.5475 262.61 55.9961 262.789C55.4447 262.968 54.7894 263.111 54.0303 263.219C53.2783 263.333 52.5013 263.391 51.6992 263.391C49.429 263.391 47.6494 262.836 46.3604 261.726C45.0785 260.616 44.4375 259.087 44.4375 257.139C44.4375 256.193 44.6273 255.298 45.0068 254.453C45.3864 253.601 45.9092 252.853 46.5752 252.208C47.2412 251.563 48.0111 251.008 48.8848 250.543C49.7585 250.07 50.7038 249.705 51.7207 249.447H44.6631V246.676H57.7256V249.447C57.4033 249.505 56.9342 249.605 56.3184 249.748C56.3255 250.342 56.3757 250.837 56.4688 251.23C56.569 251.624 56.7373 251.957 56.9736 252.229C57.21 252.502 57.5251 252.699 57.9189 252.82C58.3128 252.942 58.807 253.003 59.4014 253.003ZM50.7754 256.548C50.5247 256.29 50.3994 255.975 50.3994 255.603C50.3994 255.23 50.5247 254.915 50.7754 254.657C51.0332 254.392 51.3626 254.26 51.7637 254.26C52.1504 254.26 52.4691 254.392 52.7197 254.657C52.9775 254.915 53.1064 255.23 53.1064 255.603C53.1064 255.975 52.9775 256.29 52.7197 256.548C52.4691 256.813 52.1504 256.945 51.7637 256.945C51.3626 256.945 51.0332 256.813 50.7754 256.548ZM61.4961 245.988C61.1667 245.988 60.8802 245.87 60.6367 245.634C60.4004 245.397 60.2822 245.115 60.2822 244.785C60.2822 244.456 60.4004 244.173 60.6367 243.937C60.8802 243.693 61.1667 243.571 61.4961 243.571C61.8184 243.571 62.0941 243.693 62.3232 243.937C62.5596 244.173 62.6777 244.456 62.6777 244.785C62.6777 245.115 62.5632 245.397 62.334 245.634C62.112 245.87 61.8327 245.988 61.4961 245.988ZM64.5039 245.988C64.153 245.988 63.863 245.874 63.6338 245.645C63.4046 245.415 63.29 245.129 63.29 244.785C63.29 244.449 63.4046 244.162 63.6338 243.926C63.863 243.689 64.153 243.571 64.5039 243.571C64.8333 243.571 65.1126 243.693 65.3418 243.937C65.5781 244.173 65.6963 244.456 65.6963 244.785C65.6963 245.115 65.5781 245.397 65.3418 245.634C65.1126 245.87 64.8333 245.988 64.5039 245.988ZM66.5986 253.003L66.9746 253.078L66.835 255.936L66.459 256C64.4896 256 63.2435 255.273 62.7207 253.819C62.4844 254.5 62.0726 255.033 61.4854 255.42C60.9053 255.807 60.1676 256 59.2725 256L58.8965 255.936L59.0254 253.078L59.4014 253.003C59.8454 253.003 60.2035 252.978 60.4756 252.928C60.7549 252.87 61.0055 252.767 61.2275 252.616C61.4567 252.466 61.6178 252.244 61.7109 251.95C61.8112 251.657 61.8613 251.277 61.8613 250.812V247.643H64.1494V250.715C64.1494 251.202 64.1924 251.596 64.2783 251.896C64.3643 252.197 64.5111 252.43 64.7188 252.595C64.9336 252.759 65.1807 252.87 65.46 252.928C65.7464 252.978 66.126 253.003 66.5986 253.003ZM70.208 246.01C69.807 246.01 69.4775 245.881 69.2197 245.623C68.9691 245.358 68.8438 245.039 68.8438 244.667C68.8438 244.295 68.9691 243.979 69.2197 243.722C69.4775 243.457 69.807 243.324 70.208 243.324C70.5947 243.324 70.9134 243.457 71.1641 243.722C71.4219 243.979 71.5508 244.295 71.5508 244.667C71.5508 245.039 71.4219 245.358 71.1641 245.623C70.9134 245.881 70.5947 246.01 70.208 246.01ZM73.7959 253.003L74.1719 253.078L74.0322 255.936L73.6562 256C71.6868 256 70.4408 255.273 69.918 253.819C69.6816 254.5 69.2699 255.033 68.6826 255.42C68.1025 255.807 67.3649 256 66.4697 256L66.0938 255.936L66.2227 253.078L66.5986 253.003C67.0426 253.003 67.4007 252.978 67.6729 252.928C67.9521 252.87 68.2028 252.767 68.4248 252.616C68.654 252.466 68.8151 252.244 68.9082 251.95C69.0085 251.657 69.0586 251.277 69.0586 250.812V247.643H71.3467V250.715C71.3467 251.202 71.3896 251.596 71.4756 251.896C71.5615 252.197 71.7083 252.43 71.916 252.595C72.1309 252.759 72.3779 252.87 72.6572 252.928C72.9437 252.978 73.3232 253.003 73.7959 253.003ZM81.251 246.558C82.4827 246.558 83.4997 247.034 84.3018 247.986C85.1038 248.932 85.5049 250.12 85.5049 251.553C85.5049 252.906 85.0752 254.002 84.2158 254.84C83.3636 255.671 82.1855 256.086 80.6816 256.086C79.7005 256.086 78.8734 255.9 78.2002 255.527C77.527 255.148 77.04 254.668 76.7393 254.088C76.4814 254.711 76.0804 255.187 75.5361 255.517C74.9919 255.839 74.3688 256 73.667 256L73.291 255.936L73.4199 253.078L73.7959 253.003C74.0537 253.003 74.2829 252.985 74.4834 252.949C74.6911 252.913 74.9059 252.849 75.1279 252.756C75.3499 252.663 75.5433 252.516 75.708 252.315C75.8799 252.115 76.0195 251.868 76.127 251.574C76.5065 249.956 77.1439 248.717 78.0391 247.857C78.9342 246.991 80.0049 246.558 81.251 246.558ZM80.9072 253.121C81.7165 253.121 82.3467 252.992 82.7979 252.734C83.249 252.477 83.4746 252.129 83.4746 251.692C83.4746 251.091 83.2383 250.579 82.7656 250.156C82.293 249.727 81.7021 249.512 80.9932 249.512C80.2627 249.512 79.6253 249.73 79.0811 250.167C78.5439 250.597 78.1393 251.22 77.8672 252.036C78.0964 252.344 78.4616 252.602 78.9629 252.81C79.4714 253.017 80.1195 253.121 80.9072 253.121ZM98.1484 253.733C98.1484 254.693 98.0052 255.592 97.7188 256.43C97.4323 257.275 97.0312 258.009 96.5156 258.632C96 259.255 95.3555 259.745 94.582 260.104C93.8158 260.462 92.9743 260.641 92.0576 260.641C91.2484 260.641 90.5358 260.548 89.9199 260.361L90.124 257.579C90.6468 257.644 91.1517 257.676 91.6387 257.676C92.3477 257.676 92.9814 257.568 93.54 257.354C94.1058 257.139 94.5534 256.852 94.8828 256.494C95.2122 256.143 95.4593 255.76 95.624 255.345C95.7959 254.922 95.8818 254.489 95.8818 254.045C95.8818 253.823 95.8711 253.594 95.8496 253.357C95.8353 253.121 95.8031 252.853 95.7529 252.552C95.71 252.251 95.6706 251.993 95.6348 251.778C95.599 251.556 95.5381 251.248 95.4521 250.854C95.3662 250.453 95.3018 250.156 95.2588 249.963C95.2158 249.762 95.137 249.419 95.0225 248.932C94.9079 248.438 94.8291 248.094 94.7861 247.9L97.0527 247.267C97.7832 249.909 98.1484 252.065 98.1484 253.733ZM100.533 251.907V240.252H102.907V250.983C102.907 251.764 103.101 252.298 103.487 252.584C103.881 252.863 104.458 253.003 105.217 253.003H105.324L105.7 253.078L105.571 255.936L105.195 256H105.109C103.67 256 102.546 255.663 101.736 254.99C100.934 254.317 100.533 253.289 100.533 251.907ZM112.532 253.003L112.908 253.078L112.769 255.936L112.393 256C110.423 256 109.177 255.273 108.654 253.819C108.418 254.5 108.006 255.033 107.419 255.42C106.839 255.807 106.101 256 105.206 256L104.83 255.936L104.959 253.078L105.335 253.003C105.779 253.003 106.137 252.978 106.409 252.928C106.688 252.87 106.939 252.767 107.161 252.616C107.39 252.466 107.551 252.244 107.645 251.95C107.745 251.657 107.795 251.277 107.795 250.812V247.643H110.083V250.715C110.083 251.202 110.126 251.596 110.212 251.896C110.298 252.197 110.445 252.43 110.652 252.595C110.867 252.759 111.114 252.87 111.394 252.928C111.68 252.978 112.06 253.003 112.532 253.003ZM107.451 257.515C107.773 257.515 108.049 257.633 108.278 257.869C108.515 258.113 108.633 258.399 108.633 258.729C108.633 259.058 108.518 259.337 108.289 259.566C108.067 259.803 107.788 259.921 107.451 259.921C107.122 259.921 106.835 259.803 106.592 259.566C106.355 259.337 106.237 259.058 106.237 258.729C106.237 258.399 106.355 258.113 106.592 257.869C106.835 257.633 107.122 257.515 107.451 257.515ZM110.459 257.515C110.788 257.515 111.068 257.633 111.297 257.869C111.533 258.113 111.651 258.399 111.651 258.729C111.651 259.058 111.533 259.337 111.297 259.566C111.068 259.803 110.788 259.921 110.459 259.921C110.108 259.921 109.818 259.806 109.589 259.577C109.367 259.355 109.256 259.072 109.256 258.729C109.256 258.392 109.367 258.105 109.589 257.869C109.818 257.633 110.108 257.515 110.459 257.515ZM114.627 245.988C114.298 245.988 114.011 245.87 113.768 245.634C113.531 245.397 113.413 245.115 113.413 244.785C113.413 244.456 113.531 244.173 113.768 243.937C114.011 243.693 114.298 243.571 114.627 243.571C114.949 243.571 115.225 243.693 115.454 243.937C115.69 244.173 115.809 244.456 115.809 244.785C115.809 245.115 115.694 245.397 115.465 245.634C115.243 245.87 114.964 245.988 114.627 245.988ZM117.635 245.988C117.284 245.988 116.994 245.874 116.765 245.645C116.535 245.415 116.421 245.129 116.421 244.785C116.421 244.449 116.535 244.162 116.765 243.926C116.994 243.689 117.284 243.571 117.635 243.571C117.964 243.571 118.243 243.693 118.473 243.937C118.709 244.173 118.827 244.456 118.827 244.785C118.827 245.115 118.709 245.397 118.473 245.634C118.243 245.87 117.964 245.988 117.635 245.988ZM119.729 253.003L120.105 253.078L119.966 255.936L119.59 256C117.62 256 116.374 255.273 115.852 253.819C115.615 254.5 115.203 255.033 114.616 255.42C114.036 255.807 113.299 256 112.403 256L112.027 255.936L112.156 253.078L112.532 253.003C112.976 253.003 113.334 252.978 113.606 252.928C113.886 252.87 114.136 252.767 114.358 252.616C114.588 252.466 114.749 252.244 114.842 251.95C114.942 251.657 114.992 251.277 114.992 250.812V247.643H117.28V250.715C117.28 251.202 117.323 251.596 117.409 251.896C117.495 252.197 117.642 252.43 117.85 252.595C118.064 252.759 118.312 252.87 118.591 252.928C118.877 252.978 119.257 253.003 119.729 253.003ZM125.756 244.388C125.355 244.388 125.025 244.259 124.768 244.001C124.517 243.736 124.392 243.417 124.392 243.045C124.392 242.673 124.517 242.357 124.768 242.1C125.025 241.835 125.355 241.702 125.756 241.702C126.143 241.702 126.461 241.835 126.712 242.1C126.97 242.357 127.099 242.673 127.099 243.045C127.099 243.417 126.97 243.736 126.712 244.001C126.461 244.259 126.143 244.388 125.756 244.388ZM132.867 248.781H135.241L135.016 251.8H131.234C130.017 252.674 128.907 253.39 127.904 253.948C126.909 254.507 125.946 254.937 125.015 255.237C124.084 255.531 123.21 255.731 122.394 255.839C121.584 255.946 120.653 256 119.601 256L119.225 255.936L119.354 253.078L119.729 253.003C120.489 253.003 121.155 252.981 121.728 252.938C122.308 252.896 123.009 252.802 123.833 252.659C124.664 252.509 125.552 252.262 126.497 251.918C127.442 251.567 128.449 251.123 129.516 250.586C129.351 250.521 129.021 250.368 128.527 250.124C127.962 249.859 127.521 249.662 127.206 249.533C126.891 249.397 126.461 249.261 125.917 249.125C125.38 248.989 124.857 248.921 124.349 248.921C123.267 248.921 122.247 249.243 121.287 249.888L120.363 247.922C120.678 247.464 121.226 247.034 122.007 246.633C122.787 246.232 123.665 246.031 124.639 246.031C125.04 246.031 125.419 246.063 125.777 246.128C126.143 246.185 126.504 246.285 126.862 246.429C127.22 246.572 127.496 246.69 127.689 246.783C127.883 246.869 128.173 247.027 128.56 247.256C128.953 247.478 129.201 247.614 129.301 247.664C130.217 248.158 130.873 248.47 131.267 248.599C131.668 248.72 132.201 248.781 132.867 248.781ZM139.678 256H137.293V240.252H139.678V256ZM162.806 253.003L163.182 253.078L163.031 255.936L162.655 256C161.875 256 161.198 255.835 160.625 255.506C160.052 255.169 159.637 254.675 159.379 254.023C159.064 254.611 158.559 255.101 157.864 255.495C157.177 255.889 156.339 256.086 155.351 256.086C154.412 256.086 153.614 255.914 152.955 255.57C152.296 255.219 151.799 254.725 151.462 254.088C150.438 254.296 149.772 254.493 149.464 254.679C149.163 254.865 149.013 255.166 149.013 255.581V262.95H146.617V255.624C146.617 254.937 146.674 254.378 146.789 253.948C146.904 253.511 147.129 253.118 147.466 252.767C147.81 252.416 148.254 252.122 148.798 251.886C149.342 251.649 150.083 251.399 151.021 251.134C151.193 249.823 151.727 248.735 152.622 247.868C153.524 246.994 154.617 246.558 155.898 246.558C158.061 246.558 159.579 247.976 160.453 250.812C160.689 251.657 160.976 252.233 161.312 252.541C161.656 252.849 162.154 253.003 162.806 253.003ZM155.512 253.121C156.908 253.121 157.918 252.767 158.541 252.058C158.29 251.27 157.914 250.658 157.413 250.221C156.919 249.777 156.307 249.555 155.576 249.555C154.839 249.555 154.215 249.762 153.707 250.178C153.206 250.593 152.955 251.098 152.955 251.692C152.955 252.129 153.177 252.477 153.621 252.734C154.065 252.992 154.695 253.121 155.512 253.121ZM164.9 245.988C164.571 245.988 164.285 245.87 164.041 245.634C163.805 245.397 163.687 245.115 163.687 244.785C163.687 244.456 163.805 244.173 164.041 243.937C164.285 243.693 164.571 243.571 164.9 243.571C165.223 243.571 165.498 243.693 165.728 243.937C165.964 244.173 166.082 244.456 166.082 244.785C166.082 245.115 165.967 245.397 165.738 245.634C165.516 245.87 165.237 245.988 164.9 245.988ZM167.908 245.988C167.557 245.988 167.267 245.874 167.038 245.645C166.809 245.415 166.694 245.129 166.694 244.785C166.694 244.449 166.809 244.162 167.038 243.926C167.267 243.689 167.557 243.571 167.908 243.571C168.238 243.571 168.517 243.693 168.746 243.937C168.982 244.173 169.101 244.456 169.101 244.785C169.101 245.115 168.982 245.397 168.746 245.634C168.517 245.87 168.238 245.988 167.908 245.988ZM170.003 253.003L170.379 253.078L170.239 255.936L169.863 256C167.894 256 166.648 255.273 166.125 253.819C165.889 254.5 165.477 255.033 164.89 255.42C164.31 255.807 163.572 256 162.677 256L162.301 255.936L162.43 253.078L162.806 253.003C163.25 253.003 163.608 252.978 163.88 252.928C164.159 252.87 164.41 252.767 164.632 252.616C164.861 252.466 165.022 252.244 165.115 251.95C165.215 251.657 165.266 251.277 165.266 250.812V247.643H167.554V250.715C167.554 251.202 167.597 251.596 167.683 251.896C167.769 252.197 167.915 252.43 168.123 252.595C168.338 252.759 168.585 252.87 168.864 252.928C169.151 252.978 169.53 253.003 170.003 253.003ZM169.874 256L169.498 255.871L169.627 253.143L170.003 253.003C170.819 253.003 171.421 252.853 171.808 252.552C172.201 252.244 172.398 251.771 172.398 251.134C172.398 250.253 172.187 248.889 171.765 247.041L173.945 246.429C174.425 248.09 174.665 249.594 174.665 250.94C174.665 252.545 174.246 253.791 173.408 254.679C172.57 255.56 171.392 256 169.874 256ZM170.776 259.921C170.447 259.921 170.164 259.803 169.928 259.566C169.684 259.337 169.562 259.058 169.562 258.729C169.562 258.399 169.684 258.113 169.928 257.869C170.164 257.633 170.447 257.515 170.776 257.515C171.099 257.515 171.374 257.633 171.604 257.869C171.84 258.113 171.958 258.399 171.958 258.729C171.958 259.058 171.843 259.337 171.614 259.566C171.392 259.803 171.113 259.921 170.776 259.921ZM173.784 259.921C173.433 259.921 173.143 259.806 172.914 259.577C172.692 259.355 172.581 259.072 172.581 258.729C172.581 258.392 172.692 258.105 172.914 257.869C173.143 257.633 173.433 257.515 173.784 257.515C174.114 257.515 174.393 257.633 174.622 257.869C174.858 258.113 174.977 258.399 174.977 258.729C174.977 259.058 174.858 259.337 174.622 259.566C174.393 259.803 174.114 259.921 173.784 259.921ZM196.88 253.003L197.256 253.078L197.105 255.936L196.729 256C195.949 256 195.272 255.835 194.699 255.506C194.126 255.169 193.711 254.675 193.453 254.023C193.138 254.611 192.633 255.101 191.938 255.495C191.251 255.889 190.413 256.086 189.425 256.086C188.487 256.086 187.688 255.914 187.029 255.57C186.37 255.219 185.873 254.725 185.536 254.088C184.512 254.296 183.846 254.493 183.538 254.679C183.237 254.865 183.087 255.166 183.087 255.581V262.95H180.691V255.624C180.691 254.937 180.749 254.378 180.863 253.948C180.978 253.511 181.203 253.118 181.54 252.767C181.884 252.416 182.328 252.122 182.872 251.886C183.416 251.649 184.158 251.399 185.096 251.134C185.268 249.823 185.801 248.735 186.696 247.868C187.599 246.994 188.691 246.558 189.973 246.558C192.135 246.558 193.654 247.976 194.527 250.812C194.764 251.657 195.05 252.233 195.387 252.541C195.73 252.849 196.228 253.003 196.88 253.003ZM189.586 253.121C190.982 253.121 191.992 252.767 192.615 252.058C192.365 251.27 191.989 250.658 191.487 250.221C190.993 249.777 190.381 249.555 189.65 249.555C188.913 249.555 188.29 249.762 187.781 250.178C187.28 250.593 187.029 251.098 187.029 251.692C187.029 252.129 187.251 252.477 187.695 252.734C188.139 252.992 188.77 253.121 189.586 253.121ZM199.189 240.252H201.563V250.854C201.563 251.743 201.442 252.523 201.198 253.196C200.955 253.862 200.611 254.399 200.167 254.808C199.73 255.209 199.225 255.509 198.652 255.71C198.087 255.903 197.453 256 196.751 256L196.375 255.936L196.504 253.078L196.88 253.003C197.682 253.003 198.266 252.867 198.631 252.595C199.003 252.323 199.189 251.793 199.189 251.005V240.252Z" fill="#555555"/>
<path d="M1.05469 279.234V270.656H2.42969V278.688C2.42969 279.005 2.47135 279.271 2.55469 279.484C2.64323 279.698 2.77083 279.862 2.9375 279.977C3.10938 280.086 3.29688 280.164 3.5 280.211C3.70833 280.253 3.95573 280.273 4.24219 280.273H4.32031L4.59375 280.32L4.51562 281.953L4.24219 282H4.19531C3.22656 282 2.46094 281.773 1.89844 281.32C1.33594 280.862 1.05469 280.167 1.05469 279.234ZM6.875 274.883C6.625 274.883 6.41406 274.797 6.24219 274.625C6.07552 274.453 5.99219 274.25 5.99219 274.016C5.99219 273.771 6.07552 273.562 6.24219 273.391C6.40885 273.219 6.61979 273.133 6.875 273.133C7.11979 273.133 7.32292 273.221 7.48438 273.398C7.65104 273.57 7.73438 273.776 7.73438 274.016C7.73438 274.25 7.65104 274.453 7.48438 274.625C7.31771 274.797 7.11458 274.883 6.875 274.883ZM9.42969 280.273L9.70312 280.32L9.64062 281.953L9.36719 282C8.67448 282 8.09896 281.87 7.64062 281.609C7.1875 281.344 6.88281 280.945 6.72656 280.414C6.57031 280.909 6.27604 281.297 5.84375 281.578C5.41667 281.859 4.88542 282 4.25 282L3.97656 281.953L4.03906 280.32L4.3125 280.273C4.5625 280.273 4.77604 280.263 4.95312 280.242C5.13021 280.216 5.30208 280.169 5.46875 280.102C5.63542 280.029 5.76823 279.93 5.86719 279.805C5.97135 279.68 6.05208 279.513 6.10938 279.305C6.17188 279.096 6.20312 278.844 6.20312 278.547V276.258H7.54688V278.516C7.54688 278.891 7.58073 279.195 7.64844 279.43C7.72135 279.664 7.84115 279.844 8.00781 279.969C8.17969 280.089 8.3724 280.169 8.58594 280.211C8.79948 280.253 9.08073 280.273 9.42969 280.273ZM11.7109 274.961L11.9688 273.922C16.8438 274.88 19.2812 276.57 19.2812 278.992C19.2812 279.935 18.9974 280.677 18.4297 281.219C17.862 281.76 17.0677 282.031 16.0469 282.031C15.0208 282.031 13.9792 281.781 12.9219 281.281C11.7708 281.76 10.5885 282 9.375 282L9.10156 281.953L9.16406 280.32L9.4375 280.273C10.0156 280.273 10.6406 280.229 11.3125 280.141C10.5938 279.438 10.2344 278.703 10.2344 277.938C10.2344 277.37 10.3646 276.812 10.625 276.266C10.8906 275.714 11.2526 275.279 11.7109 274.961ZM13.1953 276C12.6641 276 12.2318 276.19 11.8984 276.57C11.5703 276.951 11.4062 277.38 11.4062 277.859C11.4062 278.208 11.5703 278.536 11.8984 278.844C12.2266 279.151 12.6641 279.424 13.2109 279.664C13.763 279.445 14.1927 279.19 14.5 278.898C14.8073 278.602 14.9609 278.292 14.9609 277.969C14.9609 277.443 14.7995 276.984 14.4766 276.594C14.1589 276.198 13.7318 276 13.1953 276ZM16.2031 280.289C16.8073 280.289 17.2682 280.18 17.5859 279.961C17.9036 279.742 18.0625 279.456 18.0625 279.102C18.0625 278.159 17.375 277.38 16 276.766C16.0938 277.089 16.1406 277.43 16.1406 277.789C16.1406 278.643 15.7083 279.427 14.8438 280.141C15.3281 280.24 15.7812 280.289 16.2031 280.289ZM32.6641 280.273L32.9297 280.32L32.8672 281.938L32.5938 282C30.8333 282 29.8307 281.221 29.5859 279.664C29.1589 280.56 28.349 281.008 27.1562 281.008C26.2812 281.008 25.5729 280.755 25.0312 280.25C24.4948 279.745 24.2266 279.07 24.2266 278.227C24.2266 277.737 24.3203 277.286 24.5078 276.875C24.6953 276.464 24.9922 276.078 25.3984 275.719C25.8047 275.359 26.349 275.044 27.0312 274.773C27.7188 274.497 28.5339 274.271 29.4766 274.094V272.961H30.8047V278.562C30.8047 278.922 30.8464 279.219 30.9297 279.453C31.0182 279.688 31.151 279.862 31.3281 279.977C31.5052 280.091 31.6953 280.169 31.8984 280.211C32.1016 280.253 32.3568 280.273 32.6641 280.273ZM27.3359 279.266C27.888 279.266 28.3464 279.185 28.7109 279.023C29.0755 278.857 29.3307 278.654 29.4766 278.414V275.633C28.0599 275.888 27.0365 276.227 26.4062 276.648C25.776 277.065 25.4609 277.521 25.4609 278.016C25.4609 278.427 25.6328 278.74 25.9766 278.953C26.3203 279.161 26.7734 279.266 27.3359 279.266ZM37.7734 280.273L38.0469 280.32L37.9844 281.953L37.7109 282C37.0234 282 36.4479 281.87 35.9844 281.609C35.5208 281.344 35.2109 280.956 35.0547 280.445C34.8932 280.93 34.599 281.31 34.1719 281.586C33.7448 281.862 33.2188 282 32.5938 282L32.3203 281.953L32.3828 280.32L32.6562 280.273C32.9688 280.273 33.2266 280.255 33.4297 280.219C33.638 280.177 33.8307 280.099 34.0078 279.984C34.1901 279.865 34.3229 279.688 34.4062 279.453C34.4896 279.214 34.5312 278.911 34.5312 278.547V270.656H35.9062V278.516C35.9062 278.885 35.9453 279.19 36.0234 279.43C36.1068 279.669 36.2344 279.849 36.4062 279.969C36.5833 280.089 36.7734 280.169 36.9766 280.211C37.1849 280.253 37.4505 280.273 37.7734 280.273ZM42.8984 280.273L43.1719 280.32L43.1094 281.953L42.8359 282C42.1432 282 41.5677 281.87 41.1094 281.609C40.6562 281.344 40.3516 280.945 40.1953 280.414C40.0391 280.909 39.7448 281.297 39.3125 281.578C38.8854 281.859 38.3542 282 37.7188 282L37.4453 281.953L37.5078 280.32L37.7812 280.273C38.0312 280.273 38.2448 280.263 38.4219 280.242C38.599 280.216 38.7708 280.169 38.9375 280.102C39.1042 280.029 39.237 279.93 39.3359 279.805C39.4401 279.68 39.5208 279.513 39.5781 279.305C39.6406 279.096 39.6719 278.844 39.6719 278.547V276.258H41.0156V278.516C41.0156 278.891 41.0495 279.195 41.1172 279.43C41.1901 279.664 41.3099 279.844 41.4766 279.969C41.6484 280.089 41.8411 280.169 42.0547 280.211C42.2682 280.253 42.5495 280.273 42.8984 280.273ZM39.2891 283.172C39.5078 283.172 39.6953 283.25 39.8516 283.406C40.0078 283.562 40.0859 283.75 40.0859 283.969C40.0859 284.193 40.0104 284.38 39.8594 284.531C39.7083 284.688 39.5182 284.766 39.2891 284.766C39.0703 284.766 38.8802 284.688 38.7188 284.531C38.5625 284.375 38.4844 284.188 38.4844 283.969C38.4844 283.755 38.5651 283.568 38.7266 283.406C38.888 283.25 39.0755 283.172 39.2891 283.172ZM41.3828 283.172C41.5964 283.172 41.7812 283.25 41.9375 283.406C42.099 283.568 42.1797 283.755 42.1797 283.969C42.1797 284.188 42.1016 284.375 41.9453 284.531C41.7891 284.688 41.6016 284.766 41.3828 284.766C41.1536 284.766 40.9609 284.688 40.8047 284.531C40.6536 284.38 40.5781 284.193 40.5781 283.969C40.5781 283.75 40.6536 283.562 40.8047 283.406C40.9609 283.25 41.1536 283.172 41.3828 283.172ZM53.5781 274.883C54.2448 274.883 54.8411 275.057 55.3672 275.406C55.8932 275.755 56.2917 276.201 56.5625 276.742C56.8333 277.279 56.9688 277.852 56.9688 278.461C56.9688 279.581 56.5781 280.451 55.7969 281.07C55.0208 281.69 53.849 282 52.2812 282H47.6875C47.0938 282 46.5859 281.875 46.1641 281.625C45.7422 281.37 45.4505 280.992 45.2891 280.492C45.0182 281.497 44.2031 282 42.8438 282L42.5703 281.953L42.6328 280.32L42.9062 280.273C43.2031 280.273 43.4557 280.253 43.6641 280.211C43.8724 280.164 44.0625 280.083 44.2344 279.969C44.4062 279.854 44.5339 279.693 44.6172 279.484C44.7057 279.271 44.75 279.005 44.75 278.688V277.008H46.1094V278.719C46.1094 279.198 46.2057 279.555 46.3984 279.789C46.5911 280.023 46.8724 280.174 47.2422 280.242C49.1849 276.669 51.2969 274.883 53.5781 274.883ZM48.4453 280.273H52.5078C53.4922 280.273 54.2708 280.138 54.8438 279.867C55.4167 279.591 55.7031 279.177 55.7031 278.625C55.7031 278.109 55.487 277.648 55.0547 277.242C54.6276 276.831 54.0651 276.625 53.3672 276.625C52.7266 276.625 52.0964 276.797 51.4766 277.141C50.8568 277.479 50.3047 277.909 49.8203 278.43C49.3411 278.951 48.8828 279.565 48.4453 280.273ZM58.8203 279.234V270.656H60.1953V278.688C60.1953 279.005 60.237 279.271 60.3203 279.484C60.4089 279.698 60.5365 279.862 60.7031 279.977C60.875 280.086 61.0625 280.164 61.2656 280.211C61.474 280.253 61.7214 280.273 62.0078 280.273H62.0859L62.3594 280.32L62.2812 281.953L62.0078 282H61.9609C60.9922 282 60.2266 281.773 59.6641 281.32C59.1016 280.862 58.8203 280.167 58.8203 279.234ZM66.2891 272.734C66.0339 272.734 65.8229 272.651 65.6562 272.484C65.4896 272.312 65.4062 272.109 65.4062 271.875C65.4062 271.63 65.4896 271.422 65.6562 271.25C65.8229 271.078 66.0339 270.992 66.2891 270.992C66.5339 270.992 66.737 271.081 66.8984 271.258C67.0651 271.43 67.1484 271.635 67.1484 271.875C67.1484 272.109 67.0651 272.312 66.8984 272.484C66.737 272.651 66.5339 272.734 66.2891 272.734ZM70.3047 280.273L70.5703 280.32L70.5078 281.953L70.2344 282C68.6927 282 67.3073 281.745 66.0781 281.234C64.9531 281.745 63.599 282 62.0156 282L61.7422 281.953L61.8047 280.32L62.0781 280.273C62.8073 280.273 63.526 280.224 64.2344 280.125C63.4375 279.396 63.0391 278.581 63.0391 277.68C63.0391 277.065 63.1693 276.49 63.4297 275.953C63.6901 275.411 64.0729 274.969 64.5781 274.625C65.0833 274.281 65.6536 274.109 66.2891 274.109C66.8776 274.109 67.4036 274.268 67.8672 274.586C68.3359 274.904 68.6927 275.318 68.9375 275.828C69.1875 276.339 69.3125 276.885 69.3125 277.469C69.3125 278.484 68.8542 279.365 67.9375 280.109C68.7604 280.219 69.5495 280.273 70.3047 280.273ZM64.2578 277.586C64.2578 278.023 64.4167 278.419 64.7344 278.773C65.0573 279.128 65.5208 279.419 66.125 279.648C66.7448 279.43 67.224 279.156 67.5625 278.828C67.9062 278.495 68.0781 278.128 68.0781 277.727C68.0781 277.221 67.8984 276.781 67.5391 276.406C67.1849 276.031 66.7292 275.844 66.1719 275.844C65.6198 275.844 65.1615 276.018 64.7969 276.367C64.4375 276.716 64.2578 277.122 64.2578 277.586ZM70.4531 273.312C70.4531 273.099 70.5339 272.914 70.6953 272.758C70.8568 272.596 71.0443 272.516 71.2578 272.516C71.4766 272.516 71.6641 272.594 71.8203 272.75C71.9766 272.906 72.0547 273.094 72.0547 273.312C72.0547 273.536 71.9792 273.727 71.8281 273.883C71.6771 274.034 71.487 274.109 71.2578 274.109C71.0391 274.109 70.849 274.031 70.6875 273.875C70.5312 273.719 70.4531 273.531 70.4531 273.312ZM72.5547 273.312C72.5547 273.094 72.6302 272.906 72.7812 272.75C72.9323 272.594 73.1224 272.516 73.3516 272.516C73.5651 272.516 73.7526 272.596 73.9141 272.758C74.0755 272.914 74.1562 273.099 74.1562 273.312C74.1562 273.531 74.0755 273.719 73.9141 273.875C73.7578 274.031 73.5703 274.109 73.3516 274.109C73.1224 274.109 72.9323 274.034 72.7812 273.883C72.6302 273.727 72.5547 273.536 72.5547 273.312ZM70.2344 282L69.9609 281.938L70.0234 280.336L70.2969 280.273C70.9271 280.273 71.3932 280.151 71.6953 279.906C72.0026 279.661 72.1562 279.281 72.1562 278.766C72.1562 278.021 72.0052 276.987 71.7031 275.664L73 275.328C73.3333 276.609 73.5 277.703 73.5 278.609C73.5 279.693 73.2057 280.529 72.6172 281.117C72.0286 281.706 71.2344 282 70.2344 282ZM80.25 272.383C80.25 272.169 80.3307 271.984 80.4922 271.828C80.6536 271.667 80.8411 271.586 81.0547 271.586C81.2734 271.586 81.4609 271.664 81.6172 271.82C81.7734 271.977 81.8516 272.164 81.8516 272.383C81.8516 272.607 81.776 272.797 81.625 272.953C81.474 273.109 81.2839 273.188 81.0547 273.188C80.8359 273.188 80.6458 273.109 80.4844 272.953C80.3281 272.792 80.25 272.602 80.25 272.383ZM82.3516 272.383C82.3516 272.164 82.4271 271.977 82.5781 271.82C82.7292 271.664 82.9193 271.586 83.1484 271.586C83.362 271.586 83.5495 271.667 83.7109 271.828C83.8724 271.984 83.9531 272.169 83.9531 272.383C83.9531 272.602 83.8724 272.792 83.7109 272.953C83.5547 273.109 83.3672 273.188 83.1484 273.188C82.9193 273.188 82.7292 273.109 82.5781 272.953C82.4271 272.797 82.3516 272.607 82.3516 272.383ZM85.4062 278.562C85.4062 278.896 85.3698 279.219 85.2969 279.531C85.2292 279.839 85.1094 280.146 84.9375 280.453C84.7708 280.755 84.5599 281.021 84.3047 281.25C84.0495 281.474 83.7188 281.656 83.3125 281.797C82.9062 281.932 82.4479 282 81.9375 282C80.8438 282 80.0026 281.706 79.4141 281.117C78.8307 280.523 78.5391 279.708 78.5391 278.672C78.5391 278.141 78.6224 277.628 78.7891 277.133C78.9609 276.638 79.1953 276.198 79.4922 275.812C79.7943 275.427 80.1719 275.12 80.625 274.891C81.0781 274.661 81.5677 274.547 82.0938 274.547C82.6042 274.547 83.0703 274.664 83.4922 274.898C83.9193 275.128 84.2682 275.435 84.5391 275.82C84.8151 276.201 85.0286 276.628 85.1797 277.102C85.3307 277.576 85.4062 278.062 85.4062 278.562ZM84.1719 278.672C84.1719 278.427 84.1328 278.177 84.0547 277.922C83.9818 277.661 83.8646 277.406 83.7031 277.156C83.5469 276.901 83.3177 276.693 83.0156 276.531C82.7135 276.37 82.3646 276.289 81.9688 276.289C81.625 276.289 81.3099 276.357 81.0234 276.492C80.737 276.628 80.5052 276.805 80.3281 277.023C80.151 277.237 80.013 277.471 79.9141 277.727C79.8203 277.982 79.7734 278.237 79.7734 278.492C79.7734 279.06 79.9766 279.5 80.3828 279.812C80.7943 280.12 81.3542 280.273 82.0625 280.273C82.7135 280.273 83.2266 280.13 83.6016 279.844C83.9818 279.557 84.1719 279.167 84.1719 278.672ZM96.1094 280.273L96.3828 280.32L96.3203 281.953L96.0469 282C95.6615 282 95.3177 281.961 95.0156 281.883C94.7188 281.799 94.4609 281.672 94.2422 281.5C94.0234 281.328 93.8333 281.135 93.6719 280.922C93.5156 280.703 93.3594 280.438 93.2031 280.125C92.9844 280.781 92.5938 281.281 92.0312 281.625C91.474 281.969 90.7604 282.141 89.8906 282.141C89.4583 282.141 89.0703 282.104 88.7266 282.031C88.3828 281.964 88.0911 281.867 87.8516 281.742C87.6172 281.617 87.4115 281.466 87.2344 281.289C87.0625 281.112 86.9297 280.917 86.8359 280.703C86.7422 280.484 86.6667 280.253 86.6094 280.008C86.5521 279.763 86.5234 279.51 86.5234 279.25C86.5234 278.99 86.526 278.721 86.5312 278.445L87.7266 278.383C87.7057 278.799 87.7474 279.146 87.8516 279.422C87.9557 279.698 88.1198 279.906 88.3438 280.047C88.5729 280.182 88.8203 280.276 89.0859 280.328C89.3516 280.375 89.6771 280.398 90.0625 280.398C90.7708 280.398 91.3411 280.276 91.7734 280.031C92.2109 279.786 92.4531 279.435 92.5 278.977L90.1641 274.047L91.5078 273.422L93.9375 278.492C94.0729 278.779 94.1849 279.003 94.2734 279.164C94.362 279.326 94.4688 279.49 94.5938 279.656C94.7188 279.818 94.8464 279.938 94.9766 280.016C95.112 280.089 95.2708 280.151 95.4531 280.203C95.6406 280.25 95.8594 280.273 96.1094 280.273ZM98.3828 274.961L98.6406 273.922C103.516 274.88 105.953 276.57 105.953 278.992C105.953 279.935 105.669 280.677 105.102 281.219C104.534 281.76 103.74 282.031 102.719 282.031C101.693 282.031 100.651 281.781 99.5938 281.281C98.4427 281.76 97.2604 282 96.0469 282L95.7734 281.953L95.8359 280.32L96.1094 280.273C96.6875 280.273 97.3125 280.229 97.9844 280.141C97.2656 279.438 96.9062 278.703 96.9062 277.938C96.9062 277.37 97.0365 276.812 97.2969 276.266C97.5625 275.714 97.9245 275.279 98.3828 274.961ZM99.8672 276C99.3359 276 98.9036 276.19 98.5703 276.57C98.2422 276.951 98.0781 277.38 98.0781 277.859C98.0781 278.208 98.2422 278.536 98.5703 278.844C98.8984 279.151 99.3359 279.424 99.8828 279.664C100.435 279.445 100.865 279.19 101.172 278.898C101.479 278.602 101.633 278.292 101.633 277.969C101.633 277.443 101.471 276.984 101.148 276.594C100.831 276.198 100.404 276 99.8672 276ZM102.875 280.289C103.479 280.289 103.94 280.18 104.258 279.961C104.576 279.742 104.734 279.456 104.734 279.102C104.734 278.159 104.047 277.38 102.672 276.766C102.766 277.089 102.812 277.43 102.812 277.789C102.812 278.643 102.38 279.427 101.516 280.141C102 280.24 102.453 280.289 102.875 280.289ZM107.664 279.234V270.656H109.039V278.688C109.039 279.005 109.081 279.271 109.164 279.484C109.253 279.698 109.38 279.862 109.547 279.977C109.719 280.086 109.906 280.164 110.109 280.211C110.318 280.253 110.565 280.273 110.852 280.273H110.93L111.203 280.32L111.125 281.953L110.852 282H110.805C109.836 282 109.07 281.773 108.508 281.32C107.945 280.862 107.664 280.167 107.664 279.234ZM118.773 273.711C118.628 273.862 118.448 273.938 118.234 273.938C118.021 273.938 117.839 273.862 117.688 273.711C117.542 273.56 117.469 273.38 117.469 273.172C117.469 272.953 117.539 272.768 117.68 272.617C117.826 272.461 118.01 272.383 118.234 272.383C118.458 272.383 118.641 272.461 118.781 272.617C118.927 272.768 119 272.953 119 273.172C119 273.38 118.924 273.56 118.773 273.711ZM117.242 275.758C117.023 275.758 116.841 275.682 116.695 275.531C116.549 275.38 116.477 275.201 116.477 274.992C116.477 274.773 116.549 274.591 116.695 274.445C116.841 274.299 117.023 274.227 117.242 274.227C117.471 274.227 117.656 274.299 117.797 274.445C117.938 274.591 118.008 274.773 118.008 274.992C118.008 275.211 117.938 275.393 117.797 275.539C117.656 275.685 117.471 275.758 117.242 275.758ZM118.656 275.539C118.516 275.393 118.445 275.211 118.445 274.992C118.445 274.773 118.516 274.591 118.656 274.445C118.797 274.299 118.982 274.227 119.211 274.227C119.44 274.227 119.625 274.299 119.766 274.445C119.906 274.591 119.977 274.773 119.977 274.992C119.977 275.206 119.904 275.388 119.758 275.539C119.617 275.685 119.435 275.758 119.211 275.758C118.982 275.758 118.797 275.685 118.656 275.539ZM125.352 280.273L125.625 280.32L125.547 281.953L125.273 282C123.716 282 122.784 281.531 122.477 280.594C122.32 281.062 122.052 281.414 121.672 281.648C121.292 281.883 120.833 282 120.297 282C119.073 282 118.315 281.536 118.023 280.609C117.862 281.068 117.583 281.414 117.188 281.648C116.797 281.883 116.331 282 115.789 282C115.206 282 114.703 281.883 114.281 281.648C113.865 281.414 113.576 281.068 113.414 280.609C113.112 281.536 112.26 282 110.859 282L110.586 281.953L110.648 280.32L110.922 280.273C111.604 280.273 112.109 280.172 112.438 279.969C112.771 279.766 112.938 279.385 112.938 278.828V277.133H114.281V278.828C114.281 279.385 114.422 279.766 114.703 279.969C114.984 280.172 115.398 280.273 115.945 280.273C116.273 280.273 116.547 280.24 116.766 280.172C116.99 280.099 117.174 279.953 117.32 279.734C117.471 279.51 117.547 279.208 117.547 278.828V277.133H118.891V278.828C118.891 279.385 119.021 279.766 119.281 279.969C119.542 280.172 119.93 280.273 120.445 280.273C120.93 280.273 121.305 280.169 121.57 279.961C121.841 279.753 121.977 279.375 121.977 278.828V277.133H123.32V278.828C123.32 279.37 123.474 279.747 123.781 279.961C124.089 280.169 124.612 280.273 125.352 280.273ZM135.602 280.273L135.875 280.32L135.789 281.953L135.516 282C134.938 282 134.438 281.88 134.016 281.641C133.594 281.401 133.284 281.052 133.086 280.594C132.857 281.005 132.492 281.354 131.992 281.641C131.492 281.922 130.898 282.062 130.211 282.062C128.997 282.062 128.117 281.674 127.57 280.898C127.357 281.247 127.047 281.518 126.641 281.711C126.24 281.904 125.792 282 125.297 282L125.023 281.953L125.086 280.32L125.359 280.273C126.229 280.273 126.815 280.065 127.117 279.648C127.107 279.565 127.102 279.432 127.102 279.25C127.102 278.568 127.247 277.94 127.539 277.367C127.836 276.789 128.25 276.328 128.781 275.984C129.318 275.641 129.917 275.469 130.578 275.469C132.115 275.469 133.174 276.521 133.758 278.625C133.924 279.255 134.141 279.688 134.406 279.922C134.677 280.156 135.076 280.273 135.602 280.273ZM130.336 280.352C130.924 280.352 131.406 280.26 131.781 280.078C132.156 279.896 132.427 279.672 132.594 279.406C132.229 277.938 131.487 277.203 130.367 277.203C129.789 277.203 129.305 277.383 128.914 277.742C128.529 278.096 128.336 278.539 128.336 279.07C128.336 279.456 128.51 279.766 128.859 280C129.208 280.234 129.701 280.352 130.336 280.352ZM137.438 270.656H138.812V278.578C138.812 279.734 138.513 280.594 137.914 281.156C137.315 281.719 136.521 282 135.531 282L135.258 281.953L135.32 280.32L135.594 280.273C135.896 280.273 136.151 280.255 136.359 280.219C136.568 280.177 136.758 280.102 136.93 279.992C137.102 279.883 137.229 279.727 137.312 279.523C137.396 279.315 137.438 279.052 137.438 278.734V270.656ZM154.898 280.273L155.172 280.32L155.109 281.953L154.836 282C154.305 282 153.846 281.93 153.461 281.789C153.081 281.648 152.771 281.461 152.531 281.227C152.297 280.987 152.109 280.674 151.969 280.289C151.828 279.904 151.732 279.5 151.68 279.078C151.633 278.656 151.607 278.159 151.602 277.586C149.607 278.154 148.081 278.875 147.023 279.75C145.971 280.625 145.445 281.615 145.445 282.719C145.445 283.005 145.484 283.281 145.562 283.547C145.646 283.812 145.789 284.076 145.992 284.336C146.195 284.596 146.448 284.82 146.75 285.008C147.057 285.201 147.453 285.354 147.938 285.469C148.422 285.589 148.966 285.648 149.57 285.648C150.456 285.648 151.276 285.56 152.031 285.383C152.786 285.206 153.349 285.034 153.719 284.867L153.922 286.367C153.755 286.456 153.56 286.544 153.336 286.633C153.117 286.721 152.812 286.828 152.422 286.953C152.031 287.078 151.568 287.18 151.031 287.258C150.5 287.336 149.951 287.375 149.383 287.375C147.753 287.375 146.477 286.979 145.555 286.188C144.638 285.401 144.18 284.315 144.18 282.93C144.18 282.216 144.328 281.534 144.625 280.883C144.927 280.232 145.339 279.661 145.859 279.172C146.38 278.677 146.979 278.253 147.656 277.898C148.333 277.539 149.057 277.268 149.828 277.086H144.32V275.484H153.688V277.086C153.125 277.206 152.766 277.286 152.609 277.328C152.615 277.865 152.654 278.31 152.727 278.664C152.799 279.018 152.922 279.32 153.094 279.57C153.271 279.82 153.505 280 153.797 280.109C154.089 280.219 154.456 280.273 154.898 280.273ZM148.484 281.82C148.484 281.576 148.568 281.37 148.734 281.203C148.901 281.031 149.112 280.945 149.367 280.945C149.612 280.945 149.815 281.031 149.977 281.203C150.143 281.375 150.227 281.581 150.227 281.82C150.227 282.055 150.143 282.258 149.977 282.43C149.81 282.602 149.607 282.688 149.367 282.688C149.117 282.688 148.906 282.602 148.734 282.43C148.568 282.258 148.484 282.055 148.484 281.82ZM156.414 274.898C156.195 274.898 156.005 274.82 155.844 274.664C155.688 274.503 155.609 274.312 155.609 274.094C155.609 273.88 155.69 273.695 155.852 273.539C156.013 273.378 156.201 273.297 156.414 273.297C156.633 273.297 156.82 273.375 156.977 273.531C157.133 273.688 157.211 273.875 157.211 274.094C157.211 274.318 157.135 274.508 156.984 274.664C156.833 274.82 156.643 274.898 156.414 274.898ZM158.508 274.898C158.279 274.898 158.086 274.82 157.93 274.664C157.779 274.508 157.703 274.318 157.703 274.094C157.703 273.875 157.779 273.688 157.93 273.531C158.086 273.375 158.279 273.297 158.508 273.297C158.721 273.297 158.906 273.378 159.062 273.539C159.224 273.695 159.305 273.88 159.305 274.094C159.305 274.312 159.224 274.503 159.062 274.664C158.906 274.82 158.721 274.898 158.508 274.898ZM160.023 280.273L160.297 280.32L160.234 281.953L159.961 282C159.268 282 158.693 281.87 158.234 281.609C157.781 281.344 157.477 280.945 157.32 280.414C157.164 280.909 156.87 281.297 156.438 281.578C156.01 281.859 155.479 282 154.844 282L154.57 281.953L154.633 280.32L154.906 280.273C155.156 280.273 155.37 280.263 155.547 280.242C155.724 280.216 155.896 280.169 156.062 280.102C156.229 280.029 156.362 279.93 156.461 279.805C156.565 279.68 156.646 279.513 156.703 279.305C156.766 279.096 156.797 278.844 156.797 278.547V276.258H158.141V278.516C158.141 278.891 158.174 279.195 158.242 279.43C158.315 279.664 158.435 279.844 158.602 279.969C158.773 280.089 158.966 280.169 159.18 280.211C159.393 280.253 159.674 280.273 160.023 280.273ZM162.594 274.883C162.344 274.883 162.133 274.797 161.961 274.625C161.794 274.453 161.711 274.25 161.711 274.016C161.711 273.771 161.794 273.562 161.961 273.391C162.128 273.219 162.339 273.133 162.594 273.133C162.839 273.133 163.042 273.221 163.203 273.398C163.37 273.57 163.453 273.776 163.453 274.016C163.453 274.25 163.37 274.453 163.203 274.625C163.036 274.797 162.833 274.883 162.594 274.883ZM165.148 280.273L165.422 280.32L165.359 281.953L165.086 282C164.393 282 163.818 281.87 163.359 281.609C162.906 281.344 162.602 280.945 162.445 280.414C162.289 280.909 161.995 281.297 161.562 281.578C161.135 281.859 160.604 282 159.969 282L159.695 281.953L159.758 280.32L160.031 280.273C160.281 280.273 160.495 280.263 160.672 280.242C160.849 280.216 161.021 280.169 161.188 280.102C161.354 280.029 161.487 279.93 161.586 279.805C161.69 279.68 161.771 279.513 161.828 279.305C161.891 279.096 161.922 278.844 161.922 278.547V276.258H163.266V278.516C163.266 278.891 163.299 279.195 163.367 279.43C163.44 279.664 163.56 279.844 163.727 279.969C163.898 280.089 164.091 280.169 164.305 280.211C164.518 280.253 164.799 280.273 165.148 280.273ZM170.664 275.469C171.523 275.469 172.229 275.799 172.781 276.461C173.339 277.117 173.617 277.924 173.617 278.883C173.617 279.841 173.312 280.612 172.703 281.195C172.094 281.773 171.268 282.062 170.227 282.062C169.518 282.062 168.922 281.922 168.438 281.641C167.953 281.359 167.617 281.016 167.43 280.609C167.247 281.052 166.948 281.396 166.531 281.641C166.115 281.88 165.635 282 165.094 282L164.82 281.953L164.883 280.32L165.156 280.273C165.443 280.273 165.693 280.25 165.906 280.203C166.12 280.151 166.333 280.034 166.547 279.852C166.76 279.664 166.917 279.409 167.016 279.086C167.297 277.909 167.753 277.013 168.383 276.398C169.013 275.779 169.773 275.469 170.664 275.469ZM170.406 280.352C171.031 280.352 171.518 280.232 171.867 279.992C172.216 279.753 172.391 279.435 172.391 279.039C172.391 278.518 172.208 278.081 171.844 277.727C171.479 277.367 171.026 277.188 170.484 277.188C169.901 277.188 169.404 277.383 168.992 277.773C168.586 278.159 168.289 278.698 168.102 279.391C168.268 279.661 168.542 279.891 168.922 280.078C169.307 280.26 169.802 280.352 170.406 280.352ZM188.266 280.273L188.539 280.32L188.477 281.953L188.203 282C187.818 282 187.474 281.961 187.172 281.883C186.875 281.799 186.617 281.672 186.398 281.5C186.18 281.328 185.99 281.135 185.828 280.922C185.672 280.703 185.516 280.438 185.359 280.125C185.141 280.781 184.75 281.281 184.188 281.625C183.63 281.969 182.917 282.141 182.047 282.141C181.615 282.141 181.227 282.104 180.883 282.031C180.539 281.964 180.247 281.867 180.008 281.742C179.773 281.617 179.568 281.466 179.391 281.289C179.219 281.112 179.086 280.917 178.992 280.703C178.898 280.484 178.823 280.253 178.766 280.008C178.708 279.763 178.68 279.51 178.68 279.25C178.68 278.99 178.682 278.721 178.688 278.445L179.883 278.383C179.862 278.799 179.904 279.146 180.008 279.422C180.112 279.698 180.276 279.906 180.5 280.047C180.729 280.182 180.977 280.276 181.242 280.328C181.508 280.375 181.833 280.398 182.219 280.398C182.927 280.398 183.497 280.276 183.93 280.031C184.367 279.786 184.609 279.435 184.656 278.977L182.32 274.047L183.664 273.422L186.094 278.492C186.229 278.779 186.341 279.003 186.43 279.164C186.518 279.326 186.625 279.49 186.75 279.656C186.875 279.818 187.003 279.938 187.133 280.016C187.268 280.089 187.427 280.151 187.609 280.203C187.797 280.25 188.016 280.273 188.266 280.273ZM188.203 282L187.93 281.938L187.992 280.336L188.266 280.273C188.896 280.273 189.362 280.151 189.664 279.906C189.971 279.661 190.125 279.281 190.125 278.766C190.125 278.021 189.974 276.987 189.672 275.664L190.969 275.328C191.302 276.609 191.469 277.703 191.469 278.609C191.469 279.693 191.174 280.529 190.586 281.117C189.997 281.706 189.203 282 188.203 282ZM188.859 284.766C188.641 284.766 188.451 284.688 188.289 284.531C188.133 284.375 188.055 284.188 188.055 283.969C188.055 283.755 188.135 283.568 188.297 283.406C188.458 283.25 188.646 283.172 188.859 283.172C189.078 283.172 189.266 283.25 189.422 283.406C189.578 283.562 189.656 283.75 189.656 283.969C189.656 284.193 189.581 284.38 189.43 284.531C189.279 284.688 189.089 284.766 188.859 284.766ZM190.953 284.766C190.724 284.766 190.534 284.688 190.383 284.531C190.232 284.38 190.156 284.193 190.156 283.969C190.156 283.75 190.232 283.562 190.383 283.406C190.534 283.25 190.724 283.172 190.953 283.172C191.167 283.172 191.352 283.25 191.508 283.406C191.669 283.568 191.75 283.755 191.75 283.969C191.75 284.188 191.672 284.375 191.516 284.531C191.359 284.688 191.172 284.766 190.953 284.766ZM202.031 280.273L202.305 280.32L202.242 281.953L201.969 282C201.583 282 201.24 281.961 200.938 281.883C200.641 281.799 200.383 281.672 200.164 281.5C199.945 281.328 199.755 281.135 199.594 280.922C199.438 280.703 199.281 280.438 199.125 280.125C198.906 280.781 198.516 281.281 197.953 281.625C197.396 281.969 196.682 282.141 195.812 282.141C195.38 282.141 194.992 282.104 194.648 282.031C194.305 281.964 194.013 281.867 193.773 281.742C193.539 281.617 193.333 281.466 193.156 281.289C192.984 281.112 192.852 280.917 192.758 280.703C192.664 280.484 192.589 280.253 192.531 280.008C192.474 279.763 192.445 279.51 192.445 279.25C192.445 278.99 192.448 278.721 192.453 278.445L193.648 278.383C193.628 278.799 193.669 279.146 193.773 279.422C193.878 279.698 194.042 279.906 194.266 280.047C194.495 280.182 194.742 280.276 195.008 280.328C195.273 280.375 195.599 280.398 195.984 280.398C196.693 280.398 197.263 280.276 197.695 280.031C198.133 279.786 198.375 279.435 198.422 278.977L196.086 274.047L197.43 273.422L199.859 278.492C199.995 278.779 200.107 279.003 200.195 279.164C200.284 279.326 200.391 279.49 200.516 279.656C200.641 279.818 200.768 279.938 200.898 280.016C201.034 280.089 201.193 280.151 201.375 280.203C201.562 280.25 201.781 280.273 202.031 280.273ZM214.031 280.273L214.305 280.32L214.242 281.953L213.969 282C213.38 282 212.885 281.932 212.484 281.797C212.083 281.661 211.768 281.456 211.539 281.18C211.31 280.898 211.143 280.583 211.039 280.234C210.94 279.88 210.88 279.456 210.859 278.961H210.336C209.456 279.576 208.648 280.083 207.914 280.484C207.18 280.885 206.477 281.198 205.805 281.422C205.138 281.641 204.51 281.792 203.922 281.875C203.333 281.958 202.682 282 201.969 282L201.695 281.953L201.758 280.32L202.031 280.273C202.464 280.273 202.844 280.263 203.172 280.242C203.505 280.221 203.911 280.172 204.391 280.094C204.875 280.01 205.349 279.898 205.812 279.758C206.276 279.612 206.815 279.406 207.43 279.141C208.044 278.875 208.688 278.555 209.359 278.18C209.12 278.07 208.799 277.909 208.398 277.695C208.102 277.544 207.906 277.448 207.812 277.406C207.724 277.359 207.547 277.279 207.281 277.164C207.021 277.044 206.812 276.964 206.656 276.922C206.5 276.88 206.302 276.839 206.062 276.797C205.828 276.755 205.599 276.734 205.375 276.734C204.578 276.734 203.831 276.969 203.133 277.438L202.562 276.305C202.781 275.997 203.161 275.711 203.703 275.445C204.245 275.174 204.849 275.039 205.516 275.039C205.766 275.039 206.013 275.06 206.258 275.102C206.503 275.143 206.711 275.19 206.883 275.242C207.055 275.289 207.25 275.365 207.469 275.469C207.693 275.568 207.859 275.648 207.969 275.711C208.083 275.773 208.25 275.872 208.469 276.008C208.693 276.138 208.846 276.227 208.93 276.273C209.633 276.674 210.122 276.924 210.398 277.023C210.68 277.122 211.047 277.172 211.5 277.172H213.234L213.117 278.961H211.805C211.904 279.445 212.117 279.786 212.445 279.984C212.779 280.177 213.307 280.273 214.031 280.273ZM215.539 274.898C215.32 274.898 215.13 274.82 214.969 274.664C214.812 274.503 214.734 274.312 214.734 274.094C214.734 273.88 214.815 273.695 214.977 273.539C215.138 273.378 215.326 273.297 215.539 273.297C215.758 273.297 215.945 273.375 216.102 273.531C216.258 273.688 216.336 273.875 216.336 274.094C216.336 274.318 216.26 274.508 216.109 274.664C215.958 274.82 215.768 274.898 215.539 274.898ZM217.633 274.898C217.404 274.898 217.211 274.82 217.055 274.664C216.904 274.508 216.828 274.318 216.828 274.094C216.828 273.875 216.904 273.688 217.055 273.531C217.211 273.375 217.404 273.297 217.633 273.297C217.846 273.297 218.031 273.378 218.188 273.539C218.349 273.695 218.43 273.88 218.43 274.094C218.43 274.312 218.349 274.503 218.188 274.664C218.031 274.82 217.846 274.898 217.633 274.898ZM219.148 280.273L219.422 280.32L219.359 281.953L219.086 282C218.393 282 217.818 281.87 217.359 281.609C216.906 281.344 216.602 280.945 216.445 280.414C216.289 280.909 215.995 281.297 215.562 281.578C215.135 281.859 214.604 282 213.969 282L213.695 281.953L213.758 280.32L214.031 280.273C214.281 280.273 214.495 280.263 214.672 280.242C214.849 280.216 215.021 280.169 215.188 280.102C215.354 280.029 215.487 279.93 215.586 279.805C215.69 279.68 215.771 279.513 215.828 279.305C215.891 279.096 215.922 278.844 215.922 278.547V276.258H217.266V278.516C217.266 278.891 217.299 279.195 217.367 279.43C217.44 279.664 217.56 279.844 217.727 279.969C217.898 280.089 218.091 280.169 218.305 280.211C218.518 280.253 218.799 280.273 219.148 280.273ZM219.094 282L218.82 281.938L218.883 280.336L219.156 280.273C219.786 280.273 220.253 280.151 220.555 279.906C220.862 279.661 221.016 279.281 221.016 278.766C221.016 278.021 220.865 276.987 220.562 275.664L221.859 275.328C222.193 276.609 222.359 277.703 222.359 278.609C222.359 279.693 222.065 280.529 221.477 281.117C220.888 281.706 220.094 282 219.094 282ZM220.789 284.914C220.534 284.914 220.323 284.828 220.156 284.656C219.99 284.484 219.906 284.276 219.906 284.031C219.906 283.797 219.99 283.594 220.156 283.422C220.323 283.255 220.534 283.172 220.789 283.172C221.034 283.172 221.237 283.255 221.398 283.422C221.565 283.594 221.648 283.797 221.648 284.031C221.648 284.271 221.565 284.477 221.398 284.648C221.237 284.826 221.034 284.914 220.789 284.914ZM238.875 280.273L239.141 280.32L239.062 281.953L238.789 282C238.211 282 237.711 281.88 237.289 281.641C236.867 281.401 236.557 281.052 236.359 280.594C236.13 281.005 235.763 281.354 235.258 281.641C234.758 281.922 234.164 282.062 233.477 282.062C232.753 282.062 232.141 281.919 231.641 281.633C231.146 281.341 230.794 280.935 230.586 280.414C229.815 280.576 229.31 280.734 229.07 280.891C228.831 281.042 228.711 281.289 228.711 281.633V287.055H227.336V281.711C227.336 281.263 227.38 280.893 227.469 280.602C227.557 280.305 227.719 280.036 227.953 279.797C228.193 279.552 228.505 279.346 228.891 279.18C229.276 279.008 229.781 278.839 230.406 278.672C230.531 277.755 230.911 276.992 231.547 276.383C232.182 275.773 232.951 275.469 233.852 275.469C235.388 275.469 236.448 276.521 237.031 278.625C237.198 279.255 237.414 279.688 237.68 279.922C237.951 280.156 238.349 280.273 238.875 280.273ZM233.609 280.352C234.198 280.352 234.68 280.26 235.055 280.078C235.43 279.896 235.701 279.672 235.867 279.406C235.497 277.938 234.755 277.203 233.641 277.203C233.057 277.203 232.573 277.38 232.188 277.734C231.802 278.089 231.609 278.534 231.609 279.07C231.609 279.456 231.784 279.766 232.133 280C232.482 280.234 232.974 280.352 233.609 280.352ZM241.641 271.297C241.422 271.297 241.234 271.219 241.078 271.062C240.922 270.906 240.844 270.716 240.844 270.492C240.844 270.279 240.922 270.094 241.078 269.938C241.24 269.776 241.427 269.695 241.641 269.695C241.859 269.695 242.047 269.776 242.203 269.938C242.365 270.094 242.445 270.279 242.445 270.492C242.445 270.716 242.367 270.906 242.211 271.062C242.06 271.219 241.87 271.297 241.641 271.297ZM243.742 271.297C243.513 271.297 243.32 271.219 243.164 271.062C243.013 270.906 242.938 270.716 242.938 270.492C242.938 270.273 243.013 270.086 243.164 269.93C243.32 269.773 243.513 269.695 243.742 269.695C243.956 269.695 244.141 269.776 244.297 269.938C244.458 270.094 244.539 270.279 244.539 270.492C244.539 270.716 244.458 270.906 244.297 271.062C244.141 271.219 243.956 271.297 243.742 271.297ZM242.68 272.656C243.352 272.656 243.938 272.857 244.438 273.258C244.943 273.654 245.318 274.172 245.562 274.812C245.807 275.448 245.93 276.154 245.93 276.93C245.93 277.914 245.841 278.737 245.664 279.398C245.492 280.06 245.221 280.581 244.852 280.961C244.482 281.341 244.044 281.609 243.539 281.766C243.034 281.922 242.417 282 241.688 282H238.812L238.539 281.953L238.602 280.32L238.875 280.273H241.727C241.977 280.273 242.198 280.266 242.391 280.25C242.589 280.234 242.792 280.206 243 280.164C243.208 280.122 243.391 280.065 243.547 279.992C243.703 279.914 243.852 279.812 243.992 279.688C244.138 279.557 244.258 279.406 244.352 279.234C244.445 279.057 244.521 278.846 244.578 278.602C244.641 278.352 244.68 278.07 244.695 277.758C244.169 278.57 243.349 278.977 242.234 278.977C241.302 278.977 240.591 278.724 240.102 278.219C239.612 277.714 239.367 277.044 239.367 276.211C239.367 275.201 239.674 274.357 240.289 273.68C240.909 272.997 241.706 272.656 242.68 272.656ZM242.398 277.359C242.94 277.359 243.401 277.268 243.781 277.086C244.161 276.904 244.451 276.664 244.648 276.367C244.596 276.128 244.518 275.898 244.414 275.68C244.31 275.456 244.174 275.24 244.008 275.031C243.846 274.823 243.638 274.656 243.383 274.531C243.128 274.401 242.846 274.336 242.539 274.336C241.94 274.336 241.466 274.51 241.117 274.859C240.773 275.208 240.602 275.599 240.602 276.031C240.602 276.453 240.763 276.781 241.086 277.016C241.409 277.245 241.846 277.359 242.398 277.359Z" fill="#AAAAAA"/>
</svg>
