<svg width="24" height="24" viewBox="0 0 24 24" fill="none" xmlns="http://www.w3.org/2000/svg">
<path fill-rule="evenodd" clip-rule="evenodd" d="M5.69619 2.65528C5.85913 2.25438 6.10048 1.89004 6.4061 1.58366C6.71173 1.27728 7.07546 1.03502 7.47596 0.871096C7.87647 0.707171 8.30567 0.624882 8.73841 0.629058C9.17114 0.633233 9.59868 0.723788 9.99594 0.89541L11.4373 1.51941C11.8436 1.69653 12.3051 1.69816 12.7146 1.52591L14.1608 0.913285C14.5594 0.745204 14.9876 0.658391 15.4202 0.657936C15.8528 0.657481 16.2811 0.743392 16.68 0.910632C17.079 1.07787 17.4406 1.32308 17.7435 1.63187C18.0465 1.94067 18.2847 2.30683 18.4443 2.70891L19.0212 4.16978C19.1022 4.37391 19.2237 4.55951 19.3785 4.71536C19.5332 4.8712 19.7179 4.99407 19.9214 5.07653L21.3774 5.66641C21.7782 5.8295 22.1424 6.07097 22.4486 6.37666C22.7548 6.68235 22.9969 7.0461 23.1607 7.44659C23.3244 7.84708 23.4066 8.27623 23.4023 8.70889C23.398 9.14155 23.3074 9.56899 23.1357 9.96616L22.5117 11.4075C22.4247 11.6091 22.3793 11.8261 22.3785 12.0457C22.3777 12.2652 22.4213 12.4826 22.5068 12.6848L23.1178 14.131C23.2859 14.5296 23.3727 14.9578 23.3732 15.3904C23.3736 15.823 23.2877 16.2513 23.1205 16.6503C22.9532 17.0492 22.708 17.4108 22.3992 17.7137C22.0904 18.0167 21.7243 18.2549 21.3222 18.4145L19.8629 18.9914C19.4486 19.1539 19.1219 19.4789 18.9546 19.8917L18.3647 21.3477C18.2016 21.7484 17.9601 22.1126 17.6544 22.4188C17.3488 22.725 16.985 22.9671 16.5845 23.1309C16.184 23.2946 15.7549 23.3768 15.3222 23.3725C14.8896 23.3682 14.4621 23.2776 14.0649 23.1059L12.6252 22.4819C12.4234 22.3946 12.2061 22.3492 11.9863 22.3484C11.7664 22.3475 11.5487 22.3913 11.3463 22.477L9.90007 23.088C9.50147 23.2561 9.07332 23.3429 8.64073 23.3434C8.20813 23.3438 7.77981 23.2579 7.38085 23.0907C6.98189 22.9234 6.62034 22.6782 6.31738 22.3694C6.01443 22.0607 5.77617 21.6945 5.61657 21.2924L5.0397 19.8315C4.9587 19.6274 4.83716 19.4418 4.68243 19.286C4.5277 19.1301 4.34299 19.0072 4.13944 18.9248L2.68507 18.3349C2.28416 18.172 1.91983 17.9306 1.61345 17.625C1.30707 17.3194 1.06481 16.9556 0.900881 16.5551C0.736956 16.1546 0.654668 15.7254 0.658843 15.2927C0.663018 14.86 0.753573 14.4324 0.925195 14.0352L1.5492 12.5954C1.63672 12.3938 1.68243 12.1765 1.68354 11.9566C1.68466 11.7368 1.64117 11.5191 1.55569 11.3165L0.94307 9.87029C0.774989 9.47168 0.688177 9.04353 0.687721 8.61094C0.687266 8.17835 0.773177 7.75002 0.940418 7.35106C1.10766 6.95211 1.35286 6.59055 1.66166 6.2876C1.97045 5.98464 2.33662 5.74638 2.73869 5.58678L4.19957 5.01153C4.61232 4.84903 4.94057 4.52403 5.10632 4.11128L5.69619 2.65528Z" fill="url(#paint0_linear_882_38674)"/>
<path fill-rule="evenodd" clip-rule="evenodd" d="M5.69619 2.65528C5.85913 2.25438 6.10048 1.89004 6.4061 1.58366C6.71173 1.27728 7.07546 1.03502 7.47596 0.871096C7.87647 0.707171 8.30567 0.624882 8.73841 0.629058C9.17114 0.633233 9.59868 0.723788 9.99594 0.89541L11.4373 1.51941C11.8436 1.69653 12.3051 1.69816 12.7146 1.52591L14.1608 0.913285C14.5594 0.745204 14.9876 0.658391 15.4202 0.657936C15.8528 0.657481 16.2811 0.743392 16.68 0.910632C17.079 1.07787 17.4406 1.32308 17.7435 1.63187C18.0465 1.94067 18.2847 2.30683 18.4443 2.70891L19.0212 4.16978C19.1022 4.37391 19.2237 4.55951 19.3785 4.71536C19.5332 4.8712 19.7179 4.99407 19.9214 5.07653L21.3774 5.66641C21.7782 5.8295 22.1424 6.07097 22.4486 6.37666C22.7548 6.68235 22.9969 7.0461 23.1607 7.44659C23.3244 7.84708 23.4066 8.27623 23.4023 8.70889C23.398 9.14155 23.3074 9.56899 23.1357 9.96616L22.5117 11.4075C22.4247 11.6091 22.3793 11.8261 22.3785 12.0457C22.3777 12.2652 22.4213 12.4826 22.5068 12.6848L23.1178 14.131C23.2859 14.5296 23.3727 14.9578 23.3732 15.3904C23.3736 15.823 23.2877 16.2513 23.1205 16.6503C22.9532 17.0492 22.708 17.4108 22.3992 17.7137C22.0904 18.0167 21.7243 18.2549 21.3222 18.4145L19.8629 18.9914C19.4486 19.1539 19.1219 19.4789 18.9546 19.8917L18.3647 21.3477C18.2016 21.7484 17.9601 22.1126 17.6544 22.4188C17.3488 22.725 16.985 22.9671 16.5845 23.1309C16.184 23.2946 15.7549 23.3768 15.3222 23.3725C14.8896 23.3682 14.4621 23.2776 14.0649 23.1059L12.6252 22.4819C12.4234 22.3946 12.2061 22.3492 11.9863 22.3484C11.7664 22.3475 11.5487 22.3913 11.3463 22.477L9.90007 23.088C9.50147 23.2561 9.07332 23.3429 8.64073 23.3434C8.20813 23.3438 7.77981 23.2579 7.38085 23.0907C6.98189 22.9234 6.62034 22.6782 6.31738 22.3694C6.01443 22.0607 5.77617 21.6945 5.61657 21.2924L5.0397 19.8315C4.9587 19.6274 4.83716 19.4418 4.68243 19.286C4.5277 19.1301 4.34299 19.0072 4.13944 18.9248L2.68507 18.3349C2.28416 18.172 1.91983 17.9306 1.61345 17.625C1.30707 17.3194 1.06481 16.9556 0.900881 16.5551C0.736956 16.1546 0.654668 15.7254 0.658843 15.2927C0.663018 14.86 0.753573 14.4324 0.925195 14.0352L1.5492 12.5954C1.63672 12.3938 1.68243 12.1765 1.68354 11.9566C1.68466 11.7368 1.64117 11.5191 1.55569 11.3165L0.94307 9.87029C0.774989 9.47168 0.688177 9.04353 0.687721 8.61094C0.687266 8.17835 0.773177 7.75002 0.940418 7.35106C1.10766 6.95211 1.35286 6.59055 1.66166 6.2876C1.97045 5.98464 2.33662 5.74638 2.73869 5.58678L4.19957 5.01153C4.61232 4.84903 4.94057 4.52403 5.10632 4.11128L5.69619 2.65528Z" fill="url(#paint1_linear_882_38674)" fill-opacity="0.7"/>
<path d="M14.871 12H9.1835C8.06225 12 7.09213 12.9181 7.28225 14.0248C7.58775 15.7895 8.60825 17.6875 12.0273 17.6875C15.4463 17.6875 16.4684 15.7895 16.7723 14.0248C16.964 12.9198 15.9923 12 14.871 12ZM12.0273 10.375C12.3474 10.375 12.6643 10.312 12.96 10.1895C13.2558 10.067 13.5245 9.88742 13.7508 9.66107C13.9772 9.43473 14.1567 9.16602 14.2792 8.87029C14.4017 8.57456 14.4648 8.2576 14.4648 7.9375C14.4648 7.6174 14.4017 7.30044 14.2792 7.00471C14.1567 6.70898 13.9772 6.44027 13.7508 6.21393C13.5245 5.98758 13.2558 5.80804 12.96 5.68554C12.6643 5.56305 12.3474 5.5 12.0273 5.5C11.3808 5.5 10.7608 5.75681 10.3037 6.21393C9.84656 6.67105 9.58975 7.29103 9.58975 7.9375C9.58975 8.58397 9.84656 9.20395 10.3037 9.66107C10.7608 10.1182 11.3808 10.375 12.0273 10.375Z" fill="url(#paint2_linear_882_38674)" fill-opacity="0.9"/>
<defs>
<linearGradient id="paint0_linear_882_38674" x1="4.44819" y1="-0.636965" x2="15.8216" y2="24.6383" gradientUnits="userSpaceOnUse">
<stop stop-color="#1EC8B0"/>
<stop offset="1" stop-color="#2764E7"/>
</linearGradient>
<linearGradient id="paint1_linear_882_38674" x1="15.5518" y1="3.42066" x2="20.0596" y2="25.8213" gradientUnits="userSpaceOnUse">
<stop offset="0.533" stop-color="#FF6CE8" stop-opacity="0"/>
<stop offset="1" stop-color="#FF6CE8"/>
</linearGradient>
<linearGradient id="paint2_linear_882_38674" x1="19.187" y1="28.1346" x2="-2.38" y2="-2.82162" gradientUnits="userSpaceOnUse">
<stop stop-color="#9DEAFF"/>
<stop offset="1" stop-color="white"/>
</linearGradient>
</defs>
</svg>
