<svg width="31" height="30" viewBox="0 0 31 30" fill="none" xmlns="http://www.w3.org/2000/svg">
<rect x="0.269043" width="30" height="30" rx="15" fill="#FFCE3B"/>
<path d="M27.7361 15.6283C28.0448 15.2571 28.0444 14.7185 27.735 14.3479L25.6501 11.8504C25.4806 11.6473 25.3984 11.3854 25.4216 11.1219L25.7115 7.82524C25.755 7.33102 25.4295 6.87965 24.9469 6.76479L21.9451 6.05048C21.6746 5.9861 21.4431 5.81198 21.3062 5.56992L19.7362 2.79386C19.4818 2.3441 18.9267 2.16218 18.4555 2.37416L15.6793 3.62306C15.4184 3.74043 15.1197 3.74043 14.8588 3.62306L12.0826 2.37416C11.6114 2.16218 11.0563 2.3441 10.8019 2.79386L9.23271 5.5685C9.09535 5.81139 8.86274 5.98584 8.5911 6.04969L5.59388 6.75422C5.10998 6.86797 4.7831 7.31988 4.82653 7.81507L5.1166 11.122C5.13971 11.3855 5.05755 11.6473 4.8881 11.8503L2.80402 14.3468C2.49425 14.7178 2.49425 15.2574 2.80402 15.6285L4.8881 18.125C5.05755 18.3279 5.13971 18.5898 5.1166 18.8532L4.82632 22.1626C4.78298 22.6567 5.10843 23.1079 5.591 23.2228L8.59219 23.937C8.86318 24.0014 9.09499 24.176 9.23179 24.4187L10.8012 27.2024C11.0557 27.6538 11.6129 27.836 12.0849 27.6222L14.8579 26.3662C15.1193 26.2478 15.419 26.2475 15.6807 26.3652L18.4555 27.6135C18.9267 27.8254 19.4818 27.6435 19.7362 27.1938L21.3062 24.4177C21.4431 24.1756 21.6746 24.0015 21.9451 23.9371L24.9469 23.2228C25.4295 23.108 25.755 22.6566 25.7115 22.1624L25.4215 18.8647C25.3984 18.6018 25.4801 18.3404 25.6489 18.1376L27.7361 15.6283ZM23.6009 16.82L23.1993 17.3083C23.0325 17.5111 22.9522 17.7714 22.9757 18.0329L23.0336 18.6771L23.1704 20.2301C23.214 20.7247 22.8881 21.1764 22.4049 21.2909L20.4321 21.7585C20.1617 21.8226 19.9302 21.9963 19.7931 22.238L19.4881 22.7752L18.7675 24.0563C18.5133 24.5083 17.9556 24.6909 17.4832 24.4769L16.2145 23.9019L15.6784 23.6632C15.418 23.5473 15.1204 23.548 14.8606 23.6651L14.3354 23.9019L13.0646 24.4778C12.5931 24.6915 12.0364 24.51 11.7815 24.0595L11.0618 22.7876L10.7568 22.2504C10.6197 22.0087 10.3882 21.835 10.1178 21.7709L8.14459 21.3032C7.66162 21.1887 7.33572 20.7373 7.37907 20.2428L7.51632 18.6771L7.57419 18.0329C7.59769 17.7714 7.51737 17.5111 7.35057 17.3083L6.94904 16.82L5.96057 15.64C5.65017 15.2694 5.64927 14.7298 5.95844 14.3582L6.94904 13.1676L7.34687 12.6839C7.51586 12.4784 7.59599 12.214 7.56955 11.9493L7.5045 11.2981L7.36809 9.7579C7.32427 9.26315 7.65023 8.81122 8.13353 8.69665L10.106 8.22907C10.3764 8.16498 10.6079 7.99129 10.745 7.74964L11.05 7.21238L11.7705 5.93133C12.0248 5.47929 12.5825 5.29668 13.0549 5.51076L14.3236 6.08571L14.8597 6.32442C15.1201 6.44037 15.4176 6.43967 15.6775 6.3225L16.2027 6.08571L17.4714 5.51076C17.9438 5.29668 18.5015 5.47929 18.7557 5.93133L19.4763 7.21238L19.7812 7.74964C19.9184 7.99129 20.1499 8.16498 20.4203 8.22907L22.3931 8.69674C22.8763 8.81127 23.2022 9.26294 23.1586 9.75755L23.0218 11.3105L22.9639 11.9547C22.9404 12.2163 23.0207 12.4765 23.1875 12.6794L23.589 13.1676L24.5796 14.3501C24.8891 14.7196 24.891 15.2572 24.5842 15.6289L23.6009 16.82Z" fill="white"/>
<path d="M13.7366 16.4047C13.3423 16.8192 12.6814 16.819 12.2873 16.4044L10.9957 15.0455C10.6011 14.6303 9.93921 14.6307 9.54516 15.0463L9.17456 15.4372C8.80824 15.8236 8.80887 16.4292 9.17597 16.8148L12.2875 20.083C12.6816 20.497 13.3419 20.497 13.736 20.083L21.0313 12.4195C21.3983 12.0339 21.3989 11.4283 21.0326 11.042L20.6617 10.6508C20.2678 10.2353 19.6061 10.2347 19.2115 10.6496L13.7366 16.4047Z" fill="white"/>
</svg>
