<svg width="24" height="23" viewBox="0 0 24 23" fill="none" xmlns="http://www.w3.org/2000/svg">
<path d="M12.2322 22.0902C11.4776 21.3883 10.6246 20.6581 9.72258 19.8813H9.71088C6.53433 17.157 2.93425 14.0744 1.34422 10.3807C0.8224 9.20505 0.54511 7.92635 0.53224 6.62802C0.530506 5.7469 0.696639 4.8743 1.02088 4.06145C1.34512 3.2486 1.82094 2.5119 2.42039 1.89459C3.01984 1.27729 3.73085 0.791827 4.51165 0.466715C5.29246 0.141603 6.12733 -0.016606 6.96723 0.00137795C8.34857 0.00366635 9.70016 0.422392 10.861 1.20767C11.3711 1.55492 11.8326 1.97496 12.2322 2.45569C12.6347 1.9771 13.0957 1.55741 13.6046 1.20767C14.765 0.422237 16.1162 0.00348688 17.4972 0.00137795C18.3371 -0.016606 19.172 0.141603 19.9528 0.466715C20.7336 0.791827 21.4446 1.27729 22.0441 1.89459C22.6435 2.5119 23.1193 3.2486 23.4436 4.06145C23.7678 4.8743 23.9339 5.7469 23.9322 6.62802C23.9203 7.92735 23.6434 9.20897 23.1202 10.3868C21.5302 14.0805 17.9313 17.1619 14.7547 19.8813L14.743 19.8911C13.8398 20.663 12.988 21.3932 12.2334 22.1L12.2322 22.0902Z" fill="#EE5162"/>
</svg>
