<svg width="31" height="30" viewBox="0 0 31 30" fill="none" xmlns="http://www.w3.org/2000/svg">
<path d="M28.1797 12.5334H17.0177C16.5254 12.5334 16.1271 12.9319 16.1271 13.4241V16.9924C16.1271 17.4846 16.5254 17.8831 17.0177 17.8831H23.3047C22.6192 19.6702 21.3302 21.1643 19.6953 22.1136L22.3731 26.7542C26.6681 24.2698 29.211 19.9046 29.211 15.0237C29.211 14.3264 29.1583 13.8283 29.0587 13.2717C28.9766 12.8439 28.6075 12.5334 28.1797 12.5334Z" fill="#4285F4"/>
<path d="M15.5294 23.2385C12.4533 23.2385 9.76971 21.5569 8.32831 19.0725L3.68768 21.7444C6.04901 25.8401 10.4728 28.594 15.5294 28.594C18.0138 28.594 20.3517 27.926 22.3732 26.76V26.7541L19.6954 22.1135C18.4651 22.8284 17.0471 23.2385 15.5294 23.2385Z" fill="#34A853"/>
<path d="M22.3674 26.7603V26.7544L19.6897 22.1138C18.465 22.8228 17.047 23.2388 15.5294 23.2388V28.5941C18.0138 28.5941 20.3518 27.9263 22.3674 26.7603Z" fill="#34A853"/>
<path d="M7.20313 14.9123C7.20313 13.3948 7.61914 11.9768 8.32813 10.7522L3.68751 8.08032C2.51563 10.0901 1.84766 12.4221 1.84766 14.9123C1.84766 17.4026 2.51563 19.7346 3.68751 21.7444L8.32813 19.0726C7.61329 17.8479 7.20313 16.4299 7.20313 14.9123Z" fill="#FABB05"/>
<path d="M15.5294 6.58618C17.5334 6.58618 19.3791 7.30103 20.8147 8.48462C21.1721 8.77759 21.6877 8.75414 22.0099 8.43188L24.5353 5.90649C24.9044 5.53736 24.8752 4.93384 24.4826 4.59399C22.0744 2.49634 18.9397 1.23071 15.5294 1.23071C10.4728 1.23071 6.04901 3.98462 3.68768 8.08032L8.32831 10.7522C9.76971 8.26782 12.4533 6.58618 15.5294 6.58618Z" fill="#E83C2C"/>
<path d="M20.8147 8.48462C21.172 8.77759 21.6877 8.75414 22.0099 8.43188L24.5353 5.90649C24.9044 5.53736 24.8752 4.93384 24.4825 4.59399C22.0744 2.49634 18.9397 1.23071 15.5294 1.23071V6.58618C17.5334 6.58618 19.379 7.29517 20.8147 8.48462Z" fill="#E83C2C"/>
</svg>
