<svg width="25" height="18" viewBox="0 0 25 18" fill="none" xmlns="http://www.w3.org/2000/svg">
<path d="M19.6614 1.3938C19.3936 1.3938 19.1241 1.50761 19.1241 1.50761C18.5725 1.82026 17.502 2.48378 16.9102 2.38511C16.1399 2.25695 14.366 2.24261 12.8725 2.56815C12.7769 2.50478 12.681 2.43962 12.5864 2.3814C12.2976 2.20469 12.0145 2.05515 11.7334 1.94247C11.4608 1.83381 11.1893 1.75909 10.9054 1.74437V1.74287C10.4782 1.70753 10.0641 1.69281 9.68445 1.69281C9.10962 1.69389 8.61964 1.72628 8.25566 1.78562V1.78525L8.24975 1.78562C8.2212 1.7882 8.0787 1.76425 7.91005 1.70242C7.65266 1.61181 7.32383 1.45347 7.02036 1.29217C6.71473 1.13012 6.43489 0.968873 6.23272 0.859842C6.13386 0.806451 6.02427 0.781795 5.91195 0.788404C4.21845 0.879717 2.86456 1.54037 1.94197 2.41933C1.02125 3.30128 0.506094 4.38836 0.5 5.41351C0.5 5.72617 0.550625 6.03362 0.662609 6.32233C0.766859 6.59153 0.928672 6.84156 1.14111 7.05072C1.17922 7.09933 1.21405 7.13762 1.25141 7.17662C1.34164 7.26831 1.44912 7.3659 1.57583 7.48155C1.95177 7.82219 2.49181 8.31011 2.84253 8.75055C3.19053 9.1854 3.41478 9.58201 3.60078 9.9355C3.69397 10.1115 3.77698 10.278 3.8652 10.4367C3.902 10.5026 3.94086 10.5667 3.98155 10.6307L3.91934 10.6926C3.69861 10.9084 3.57523 11.1971 3.57172 11.506C3.56858 11.8143 3.68534 12.1067 3.90148 12.3276C4.12095 12.5515 4.41444 12.6752 4.72798 12.6752C4.94783 12.6752 5.15792 12.6118 5.34092 12.4962C5.21848 12.6803 5.15052 12.8954 5.14798 13.1215C5.14466 13.4293 5.26198 13.7214 5.47775 13.9419C5.69684 14.1666 5.9907 14.2895 6.30425 14.2895C6.55095 14.2895 6.78444 14.2093 6.98127 14.0657C6.62295 14.5153 6.64269 15.1707 7.05439 15.5924C7.27367 15.8163 7.56683 15.9392 7.88014 15.9392H7.88052C8.18445 15.9392 8.47194 15.8222 8.69061 15.6078L8.90436 15.3957C8.81487 15.56 8.76148 15.7419 8.75928 15.9334C8.75614 16.2423 8.87286 16.534 9.08905 16.7545C9.30833 16.9785 9.60181 17.1022 9.91555 17.1022C10.2193 17.1022 10.5065 16.9851 10.7271 16.7696L10.8616 16.6334C10.9276 16.6875 10.9882 16.7369 11.0374 16.7759L11.1339 16.8492C11.1661 16.8717 11.1849 16.8879 11.2456 16.9232C11.4901 17.0573 11.724 17.1154 11.9099 17.1559C12.0028 17.1754 12.0821 17.1887 12.141 17.1968L12.2128 17.206L12.2351 17.2083L12.2437 17.209L12.249 17.21L12.2548 17.2104L12.2625 17.2108C12.2695 17.2108 12.2662 17.2119 12.3032 17.2127L12.347 17.2108C12.7543 17.181 13.1398 17.041 13.4563 16.7991C13.5823 16.7026 13.6926 16.5859 13.7913 16.4585C13.9861 16.5218 14.1926 16.5594 14.4075 16.5594C15.2891 16.5587 16.0305 15.9916 16.3071 15.2042C16.4441 15.2337 16.584 15.2532 16.7291 15.2532C17.5952 15.2522 18.328 14.7056 18.6159 13.9405L18.6877 13.9471C19.805 13.9471 20.709 13.0423 20.7094 11.9258C20.7102 11.6161 20.6671 11.2729 20.5489 10.9165C21.3159 10.2389 22.439 9.19272 22.6419 8.62455C22.7402 8.35131 22.9755 7.73486 23.1354 7.51131C23.3769 7.24731 24.0095 6.65223 24.0095 6.65223C25.425 5.33767 23.7164 1.61697 19.6614 1.3938ZM18.6877 12.7341C18.5776 12.7341 18.4742 12.712 18.3777 12.6723C18.3479 12.659 18.3162 12.6538 18.2853 12.6458L17.4254 11.6229C17.2358 11.4033 16.9036 11.3787 16.6842 11.5687C16.4639 11.7587 16.4396 12.0905 16.6293 12.3107L17.523 13.3728C17.4556 13.7509 17.1272 14.0396 16.7291 14.04C16.5251 14.0396 16.3439 13.9663 16.1989 13.84C16.1712 13.8157 16.1381 13.8014 16.107 13.7822L15.3217 12.8462C15.1321 12.6259 14.7999 12.6017 14.5803 12.7917C14.3604 12.982 14.3361 13.3131 14.5259 13.5337L15.2011 14.3434C15.2029 14.3633 15.1991 14.3832 15.2024 14.4031C15.2114 14.452 15.2156 14.4966 15.2156 14.5375C15.2149 14.9841 14.8535 15.345 14.4075 15.3458C14.2676 15.3458 14.1394 15.3104 14.0253 15.2489L13.034 14.2259C12.8224 14.0267 12.4895 14.037 12.2907 14.2477C12.0916 14.4598 12.1018 14.7923 12.3129 14.9915L12.889 15.6231C12.848 15.703 12.7958 15.7755 12.7185 15.8355C12.6116 15.918 12.4644 15.974 12.2971 15.9932C12.2481 15.9858 12.1818 15.9747 12.1026 15.9556C12.0062 15.9342 11.9054 15.8981 11.8507 15.8702C11.8358 15.8591 11.7977 15.8297 11.7427 15.7858C11.6985 15.7508 11.6432 15.7052 11.5832 15.6565C11.669 15.2846 11.5723 14.8781 11.2862 14.5864C11.0671 14.3618 10.7733 14.2389 10.4597 14.2389C10.3033 14.2389 10.1518 14.2702 10.0112 14.3302L9.98984 14.3122C10.1892 14.0997 10.3034 13.8272 10.3067 13.534C10.3099 13.2251 10.1927 12.9334 9.97658 12.7129C9.75744 12.4893 9.46358 12.3653 9.15027 12.3653C8.90502 12.3653 8.67266 12.4448 8.47672 12.5869C8.63525 12.3866 8.72731 12.1443 8.73008 11.8851C8.73359 11.5765 8.61631 11.2848 8.40055 11.0642C8.18122 10.8396 7.88755 10.7163 7.57386 10.7163C7.27002 10.7163 6.98281 10.8334 6.76428 11.0477L6.56928 11.2413C6.80975 10.8057 6.75416 10.2479 6.38905 9.87484C6.16958 9.65059 5.87591 9.52722 5.56217 9.52722C5.31214 9.52722 5.07612 9.61009 4.87723 9.75775C4.667 9.36484 4.36705 8.7123 3.78983 7.99239C3.44961 7.56784 3.03439 7.17269 2.68897 6.8545C2.51666 6.69583 2.36164 6.55736 2.24802 6.45203C2.19148 6.39934 2.14527 6.35481 2.11602 6.32608L2.08803 6.29589L2.08766 6.29551L2.08634 6.29664L2.01012 6.20748C1.91534 6.11912 1.84475 6.01417 1.7938 5.88348C1.74298 5.75275 1.71336 5.59511 1.71336 5.41361C1.70764 4.81703 2.05728 3.97895 2.77831 3.29879C3.46934 2.64292 4.48362 2.12523 5.81703 2.0162C6.06416 2.15317 6.41783 2.35426 6.79306 2.53872C7.02598 2.65323 7.26627 2.76156 7.50528 2.84622C7.74645 2.92942 7.979 2.99645 8.24984 2.9994C8.31669 2.9994 8.37945 2.99387 8.43711 2.98544L8.44611 2.98394C8.70294 2.94011 9.15753 2.90589 9.6845 2.90659C10.033 2.90589 10.4153 2.91986 10.8054 2.95225L10.8332 2.9537C10.929 2.95633 11.089 2.99054 11.2832 3.06897L11.3272 3.08922C9.69041 3.82862 7.37052 5.25039 6.60823 5.50487C5.73772 5.79508 5.66478 6.9565 7.62345 7.17372C9.58269 7.39173 11.3239 6.15737 11.759 5.94086C12.0714 5.78439 14.056 5.97545 15.1554 6.09555C15.6402 6.57423 16.0652 7.01833 16.3748 7.35414L18.7894 10.306L18.8001 10.3181C19.1098 10.6765 19.2777 10.9674 19.3723 11.2166C19.4666 11.4659 19.4953 11.681 19.4961 11.9259C19.4953 12.3722 19.1344 12.7334 18.6877 12.7341Z" fill="#B9B9B9"/>
</svg>
