<svg width="20" height="20" viewBox="0 0 20 20" fill="none" xmlns="http://www.w3.org/2000/svg">
<path d="M2.875 1H7.6323C8.5338 1 9.3812 1.351 10.0188 1.98849L18.3603 10.33C18.7728 10.7425 19 11.2908 19 11.8765C19 12.4593 18.7728 13.0075 18.3603 13.42L13.42 18.3603C13.0075 18.7728 12.4593 19 11.8735 19C11.2908 19 10.7425 18.7728 10.33 18.3603L1.9885 10.0188C1.351 9.38125 1 8.53374 1 7.63226V2.87499C1 1.8415 1.8415 1 2.875 1ZM1.75 7.63226C1.75 8.33352 2.023 8.99277 2.518 9.48777L10.8602 17.83C11.3995 18.3693 12.3452 18.373 12.889 17.83L17.83 12.889C18.1007 12.619 18.25 12.259 18.25 11.8735C18.25 11.491 18.1008 11.131 17.83 10.8603L9.4885 2.51875C8.992 2.02301 8.3335 1.74999 7.6323 1.74999H2.875C2.2548 1.74999 1.75 2.25473 1.75 2.87499V7.63226Z" fill="#999999" stroke="#999999" stroke-width="0.5"/>
</svg>
